<svg width="18" height="18" viewBox="0 0 18 18" fill="none" xmlns="http://www.w3.org/2000/svg">
<g clip-path="url(#clip0_132_2155)">
<path d="M18 12V15.75C18 16.3467 17.7629 16.919 17.341 17.341C16.919 17.7629 16.3467 18 15.75 18H12C10.9478 17.9989 9.91443 17.7212 9.00349 17.1946C8.09255 16.668 7.33609 15.9112 6.81 15C7.3754 14.9959 7.93888 14.9336 8.4915 14.814C8.91236 15.3402 9.44625 15.765 10.0536 16.0569C10.6609 16.3487 11.3262 16.5002 12 16.5H15.75C15.9489 16.5 16.1397 16.421 16.2803 16.2803C16.421 16.1397 16.5 15.9489 16.5 15.75V12C16.4998 11.3259 16.3479 10.6605 16.0555 10.0532C15.7631 9.4458 15.3378 8.91204 14.811 8.49148C14.9316 7.93897 14.995 7.37549 15 6.80998C15.9112 7.33607 16.6681 8.09252 17.1946 9.00347C17.7212 9.91441 17.9989 10.9478 18 12ZM13.4827 7.23823C13.5529 6.27196 13.4142 5.30191 13.0761 4.394C12.7381 3.48609 12.2085 2.6616 11.5234 1.97654C10.8384 1.29149 10.0139 0.761927 9.10598 0.423846C8.19807 0.0857639 7.22802 -0.0529165 6.26175 0.0172277C4.54944 0.212777 2.96769 1.02761 1.81438 2.30828C0.66107 3.58896 0.0157704 5.24711 0 6.97048L0 10.7505C0 12.6495 1.13025 13.5 2.25 13.5H6.525C8.2491 13.4851 9.90826 12.8403 11.1898 11.6869C12.4714 10.5335 13.2869 8.95124 13.4827 7.23823ZM10.4625 3.03823C10.995 3.57186 11.4066 4.21363 11.6695 4.92012C11.9324 5.62661 12.0405 6.38134 11.9865 7.13323C11.8264 8.47099 11.1829 9.70409 10.177 10.6004C9.17112 11.4968 7.87229 11.9945 6.525 12H2.25C1.554 12 1.5 11.0437 1.5 10.7505V6.97048C1.50625 5.62376 2.00449 4.32576 2.90094 3.32074C3.79739 2.31572 5.03025 1.67298 6.3675 1.51348C6.492 1.50448 6.6165 1.49998 6.741 1.49998C7.43195 1.49933 8.11626 1.63486 8.75481 1.8988C9.39337 2.16274 9.97365 2.54992 10.4625 3.03823Z" fill="#A1AB82"/>
</g>
<defs>
<clipPath id="clip0_132_2155">
<rect width="18" height="18" fill="white"/>
</clipPath>
</defs>
</svg>
