<svg width="18" height="18" viewBox="0 0 18 18" fill="none" xmlns="http://www.w3.org/2000/svg">
<g id="fi-sr-comments" clip-path="url(#clip0_132_2172)">
<path id="Vector" d="M6.525 13.5H2.25C1.13025 13.5 0 12.6495 0 10.7505V6.97048C0.0157704 5.24711 0.66107 3.58896 1.81438 2.30829C2.96769 1.02761 4.54944 0.212777 6.26175 0.0172277C7.22802 -0.0529165 8.19807 0.0857639 9.10598 0.423846C10.0139 0.761927 10.8384 1.29149 11.5234 1.97654C12.2085 2.6616 12.7381 3.48609 13.0761 4.394C13.4142 5.30191 13.5529 6.27196 13.4827 7.23823C13.2869 8.95124 12.4714 10.5335 11.1898 11.6869C9.90826 12.8403 8.2491 13.4851 6.525 13.5ZM15 6.80998H14.991C14.991 6.98773 14.991 7.16548 14.982 7.34398C14.6925 11.4 10.9852 14.8335 6.813 14.9857V14.997C7.33845 15.9083 8.09427 16.6655 9.00467 17.1925C9.91507 17.7196 10.948 17.9981 12 18H15.75C16.3467 18 16.919 17.7629 17.341 17.341C17.7629 16.919 18 16.3467 18 15.75V12C17.9989 10.9478 17.7212 9.91441 17.1946 9.00347C16.6681 8.09252 15.9112 7.33607 15 6.80998Z" fill="#A1AB82"/>
</g>
<defs>
<clipPath id="clip0_132_2172">
<rect width="18" height="18" fill="white"/>
</clipPath>
</defs>
</svg>
