<svg width="38" height="38" viewBox="0 0 38 38" fill="none" xmlns="http://www.w3.org/2000/svg">
<g clip-path="url(#clip0_132_291)">
<path d="M30.0833 13.3378V11.0831C30.0833 4.96195 25.1212 -0.000244141 19 -0.000244141C12.8788 -0.000244141 7.9167 4.96195 7.9167 11.0831V13.3378C5.03509 14.5954 3.17086 17.439 3.1667 20.5831V30.0831C3.1719 34.4531 6.71324 37.9946 11.0833 37.9998H26.9166C31.2867 37.9946 34.8281 34.4531 34.8333 30.0831V20.5831C34.8292 17.439 32.9649 14.5954 30.0833 13.3378ZM20.5833 26.9164C20.5833 27.7909 19.8745 28.4998 19 28.4998C18.1256 28.4998 17.4167 27.7909 17.4167 26.9164V23.7498C17.4167 22.8753 18.1256 22.1664 19 22.1664C19.8745 22.1664 20.5833 22.8753 20.5833 23.7498V26.9164V26.9164ZM26.9167 12.6664H11.0833V11.0831C11.0833 6.71091 14.6277 3.16645 19 3.16645C23.3723 3.16645 26.9167 6.71084 26.9167 11.0831V12.6664V12.6664Z" fill="#F3752E"/>
</g>
<defs>
<clipPath id="clip0_132_291">
<rect width="38" height="38" fill="white" transform="translate(0 -0.000244141)"/>
</clipPath>
</defs>
</svg>
