<svg width="24" height="24" viewBox="0 0 24 24" fill="none" xmlns="http://www.w3.org/2000/svg">
<g clip-path="url(#clip0_131_982)">
<path d="M11.0068 2.57836L10.9998 18.0164C10.9998 18.2816 11.1052 18.5359 11.2927 18.7235C11.4802 18.911 11.7346 19.0164 11.9998 19.0164C12.265 19.0164 12.5194 18.911 12.7069 18.7235C12.8945 18.5359 12.9998 18.2816 12.9998 18.0164L13.0068 2.59536L15.9188 5.50836C16.1063 5.69583 16.3606 5.80115 16.6258 5.80115C16.891 5.80115 17.1453 5.69583 17.3328 5.50836C17.5203 5.32083 17.6256 5.06652 17.6256 4.80136C17.6256 4.5362 17.5203 4.28189 17.3328 4.09436L14.1218 0.87936C13.8432 0.60058 13.5124 0.37943 13.1483 0.228545C12.7842 0.077661 12.3939 0 11.9998 0C11.6057 0 11.2154 0.077661 10.8513 0.228545C10.4872 0.37943 10.1564 0.60058 9.87781 0.87936L6.66681 4.09136C6.47934 4.27889 6.37402 4.5332 6.37402 4.79836C6.37402 5.06352 6.47934 5.31783 6.66681 5.50536C6.85434 5.69283 7.10865 5.79815 7.37381 5.79815C7.63897 5.79815 7.89328 5.69283 8.08081 5.50536L11.0068 2.57836Z" fill="#54433A"/>
<path d="M22 16.9995V20.9995C22 21.2647 21.8946 21.5191 21.7071 21.7066C21.5196 21.8941 21.2652 21.9995 21 21.9995H3C2.73478 21.9995 2.48043 21.8941 2.29289 21.7066C2.10536 21.5191 2 21.2647 2 20.9995V16.9995C2 16.7343 1.89464 16.4799 1.70711 16.2924C1.51957 16.1049 1.26522 15.9995 1 15.9995C0.734784 15.9995 0.48043 16.1049 0.292893 16.2924C0.105357 16.4799 0 16.7343 0 16.9995L0 20.9995C0 21.7952 0.31607 22.5582 0.87868 23.1208C1.44129 23.6834 2.20435 23.9995 3 23.9995H21C21.7956 23.9995 22.5587 23.6834 23.1213 23.1208C23.6839 22.5582 24 21.7952 24 20.9995V16.9995C24 16.7343 23.8946 16.4799 23.7071 16.2924C23.5196 16.1049 23.2652 15.9995 23 15.9995C22.7348 15.9995 22.4804 16.1049 22.2929 16.2924C22.1054 16.4799 22 16.7343 22 16.9995Z" fill="#54433A"/>
</g>
<defs>
<clipPath id="clip0_131_982">
<rect width="24" height="24" fill="white"/>
</clipPath>
</defs>
</svg>
