<svg width="400" height="401" viewBox="0 0 400 401" fill="none" xmlns="http://www.w3.org/2000/svg">
<ellipse cx="89.1354" cy="92.0841" rx="89.1354" ry="92.0841" transform="matrix(0.931206 0.364494 -0.337904 0.94118 145.608 0.940063)" fill="#FFCFA7"/>
<ellipse cx="89.1354" cy="92.0841" rx="89.1354" ry="92.0841" transform="matrix(0.931206 0.364494 -0.337904 0.94118 203.264 162.626)" fill="#FFCFA7"/>
<ellipse cx="89.1354" cy="92.0841" rx="89.1354" ry="92.0841" transform="matrix(0.931206 0.364494 -0.337904 0.94118 98.3613 161.836)" fill="#FFCFA7"/>
<ellipse cx="89.1354" cy="92.0841" rx="89.1354" ry="92.0841" transform="matrix(0.931206 0.364494 -0.337904 0.94118 233.993 57.5021)" fill="#FFCFA7"/>
<ellipse cx="89.1354" cy="92.0841" rx="89.1354" ry="92.0841" transform="matrix(0.931206 0.364494 -0.337904 0.94118 62.2314 67.1517)" fill="#FFCFA7"/>
<path fill-rule="evenodd" clip-rule="evenodd" d="M135.214 219.906C135.214 219.906 135.214 219.906 135.214 219.906C135.936 255.87 165.178 284.397 200.528 283.623C235.878 282.849 263.949 253.068 263.227 217.104C263.227 217.082 263.226 217.061 263.226 217.039L263.227 217.104L135.214 219.906Z" fill="#54433A"/>
<path d="M134.51 161.151C132.036 159.855 131.098 156.768 132.432 154.313C133.745 151.898 136.76 151.019 139.165 152.351L176.995 173.296C180.041 174.982 180.112 179.358 177.124 181.119C175.8 181.899 174.168 181.938 172.803 181.223L134.51 161.151Z" fill="#54433A"/>
<path d="M139.971 203.259C137.591 204.669 134.534 203.877 133.138 201.49C131.729 199.082 132.545 195.973 134.953 194.567L171.641 173.151C173.105 172.297 174.901 172.266 176.387 173.069C179.726 174.876 179.804 179.672 176.526 181.613L139.971 203.259Z" fill="#54433A"/>
<path d="M265.49 161.151C267.964 159.855 268.902 156.768 267.568 154.313C266.255 151.898 263.24 151.019 260.835 152.351L223.005 173.296C219.959 174.982 219.888 179.358 222.876 181.119C224.2 181.899 225.832 181.938 227.197 181.223L265.49 161.151Z" fill="#54433A"/>
<path d="M260.029 203.259C262.409 204.669 265.466 203.877 266.862 201.49C268.271 199.082 267.455 195.973 265.047 194.567L228.359 173.151C226.895 172.297 225.099 172.266 223.613 173.069C220.274 174.876 220.196 179.672 223.474 181.613L260.029 203.259Z" fill="#54433A"/>
</svg>
