<svg width="411" height="410" viewBox="0 0 411 410" fill="none" xmlns="http://www.w3.org/2000/svg">
<ellipse cx="89.1354" cy="92.0841" rx="89.1354" ry="92.0841" transform="matrix(0.921797 0.387672 -0.36134 0.932434 156.088 3.64209)" fill="#CCCCCC"/>
<ellipse cx="89.1354" cy="92.0841" rx="89.1354" ry="92.0841" transform="matrix(0.921797 0.387672 -0.36134 0.932434 209.681 166.719)" fill="#CCCCCC"/>
<ellipse cx="89.1354" cy="92.0841" rx="89.1354" ry="92.0841" transform="matrix(0.921797 0.387672 -0.36134 0.932434 104.832 163.306)" fill="#CCCCCC"/>
<ellipse cx="89.1354" cy="92.0841" rx="89.1354" ry="92.0841" transform="matrix(0.921797 0.387672 -0.36134 0.932434 243.031 62.3971)" fill="#CCCCCC"/>
<ellipse cx="89.1354" cy="92.0841" rx="89.1354" ry="92.0841" transform="matrix(0.921797 0.387672 -0.36134 0.932434 71.0811 67.7476)" fill="#CCCCCC"/>
<path d="M180.861 204.804C165.862 227.026 129.362 225.509 114.861 205.078" stroke="#54433A" stroke-width="10" stroke-linecap="round"/>
<path d="M295.929 204.804C280.93 227.026 244.43 225.509 229.929 205.078" stroke="#54433A" stroke-width="10" stroke-linecap="round"/>
<path d="M177.522 260.276H233.522" stroke="#54433A" stroke-width="10" stroke-linecap="round"/>
<path d="M257.522 151.43C265.939 182.304 286.404 178.797 295.585 173.185" stroke="#54433A" stroke-width="5" stroke-linecap="round"/>
<path d="M159.848 151.43C151.431 182.304 130.966 178.797 121.785 173.185" stroke="#54433A" stroke-width="5" stroke-linecap="round"/>
</svg>
