<svg width="410" height="410" viewBox="0 0 410 410" fill="none" xmlns="http://www.w3.org/2000/svg">
<ellipse cx="89.1354" cy="92.0841" rx="89.1354" ry="92.0841" transform="matrix(0.921797 0.387672 -0.36134 0.932434 155.567 3.64209)" fill="#B0BACF"/>
<ellipse cx="89.1354" cy="92.0841" rx="89.1354" ry="92.0841" transform="matrix(0.921797 0.387672 -0.36134 0.932434 209.161 166.719)" fill="#B0BACF"/>
<ellipse cx="89.1354" cy="92.0841" rx="89.1354" ry="92.0841" transform="matrix(0.921797 0.387672 -0.36134 0.932434 104.311 163.306)" fill="#B0BACF"/>
<ellipse cx="89.1354" cy="92.0841" rx="89.1354" ry="92.0841" transform="matrix(0.921797 0.387672 -0.36134 0.932434 242.51 62.3971)" fill="#B0BACF"/>
<ellipse cx="89.1354" cy="92.0841" rx="89.1354" ry="92.0841" transform="matrix(0.921797 0.387672 -0.36134 0.932434 70.5605 67.7476)" fill="#B0BACF"/>
<path d="M128.94 179.112C160.959 179.112 170.489 161.771 174.94 144.94" stroke="#54433A" stroke-width="10" stroke-linecap="round"/>
<path d="M282.94 179.112C250.922 179.112 241.392 161.771 236.94 144.94" stroke="#54433A" stroke-width="10" stroke-linecap="round"/>
<circle cx="172.94" cy="202.137" r="18" fill="#54433A"/>
<circle cx="18" cy="18" r="18" transform="matrix(-1 0 0 1 256.94 184.137)" fill="#54433A"/>
<path d="M167.94 265.142C200.671 232.246 234.363 251.448 247.118 265.161" stroke="#54433A" stroke-width="10" stroke-linecap="round"/>
<path d="M172.835 244.924C173.007 257.69 167.639 267.732 158.843 267.114C150.046 266.495 145.236 255.738 147.175 243.121C148.8 232.54 160.282 220.869 162.052 220.994C163.821 221.118 172.691 234.219 172.835 244.924Z" fill="#DBF4F8"/>
</svg>
