<svg width="411" height="410" viewBox="0 0 411 410" fill="none" xmlns="http://www.w3.org/2000/svg">
<ellipse cx="89.1354" cy="92.0841" rx="89.1354" ry="92.0841" transform="matrix(0.921797 0.387672 -0.36134 0.932434 156.208 3.64209)" fill="#DFD2EA"/>
<ellipse cx="89.1354" cy="92.0841" rx="89.1354" ry="92.0841" transform="matrix(0.921797 0.387672 -0.36134 0.932434 209.801 166.719)" fill="#DFD2EA"/>
<ellipse cx="89.1354" cy="92.0841" rx="89.1354" ry="92.0841" transform="matrix(0.921797 0.387672 -0.36134 0.932434 104.952 163.306)" fill="#DFD2EA"/>
<ellipse cx="89.1354" cy="92.0841" rx="89.1354" ry="92.0841" transform="matrix(0.921797 0.387672 -0.36134 0.932434 243.151 62.3971)" fill="#DFD2EA"/>
<ellipse cx="89.1354" cy="92.0841" rx="89.1354" ry="92.0841" transform="matrix(0.921797 0.387672 -0.36134 0.932434 71.2012 67.7476)" fill="#DFD2EA"/>
<circle cx="161.64" cy="187" r="18" fill="#54433A"/>
<circle cx="247.64" cy="187" r="18" fill="#54433A"/>
<path d="M162.64 235.426C195.14 272.5 234.882 251.099 247.202 235.135" stroke="#54433A" stroke-width="10" stroke-linecap="round"/>
</svg>
