<svg width="411" height="410" viewBox="0 0 411 410" fill="none" xmlns="http://www.w3.org/2000/svg">
<ellipse cx="89.1354" cy="92.0841" rx="89.1354" ry="92.0841" transform="matrix(0.921797 0.387672 -0.36134 0.932434 156.328 3.64209)" fill="#BDD7D2"/>
<ellipse cx="89.1354" cy="92.0841" rx="89.1354" ry="92.0841" transform="matrix(0.921797 0.387672 -0.36134 0.932434 209.921 166.719)" fill="#BDD7D2"/>
<ellipse cx="89.1354" cy="92.0841" rx="89.1354" ry="92.0841" transform="matrix(0.921797 0.387672 -0.36134 0.932434 105.071 163.306)" fill="#BDD7D2"/>
<ellipse cx="89.1354" cy="92.0841" rx="89.1354" ry="92.0841" transform="matrix(0.921797 0.387672 -0.36134 0.932434 243.271 62.3971)" fill="#BDD7D2"/>
<ellipse cx="89.1354" cy="92.0841" rx="89.1354" ry="92.0841" transform="matrix(0.921797 0.387672 -0.36134 0.932434 71.3208 67.7476)" fill="#BDD7D2"/>
<path d="M185.759 180C170.761 202.222 134.261 200.705 119.76 180.274" stroke="#54433A" stroke-width="10" stroke-linecap="round"/>
<path d="M301.827 182C286.829 204.222 250.329 202.705 235.828 182.274" stroke="#54433A" stroke-width="10" stroke-linecap="round"/>
<ellipse cx="210.76" cy="241" rx="23" ry="30" fill="#54433A"/>
<line x1="281.76" y1="107" x2="317.76" y2="107" stroke="#2153C9" stroke-width="10" stroke-linecap="round"/>
<line x1="283.76" y1="139" x2="319.76" y2="139" stroke="#2153C9" stroke-width="10" stroke-linecap="round"/>
<line x1="283.187" y1="138.328" x2="317.9" y2="107.573" stroke="#2153C9" stroke-width="10" stroke-linecap="round"/>
<line x1="329.76" y1="78" x2="372.026" y2="78" stroke="#2153C9" stroke-width="10" stroke-linecap="round"/>
<line x1="333.493" y1="116" x2="375.76" y2="116" stroke="#2153C9" stroke-width="10" stroke-linecap="round"/>
<line x1="5" y1="-5" x2="58.5725" y2="-5" transform="matrix(0.725269 -0.688466 0.637257 0.770651 333.16 122.767)" stroke="#2153C9" stroke-width="10" stroke-linecap="round"/>
</svg>
