<svg width="411" height="410" viewBox="0 0 411 410" fill="none" xmlns="http://www.w3.org/2000/svg">
<ellipse cx="89.1354" cy="92.0841" rx="89.1354" ry="92.0841" transform="matrix(0.921797 0.387672 -0.36134 0.932434 156.448 3.64209)" fill="#DB9899"/>
<ellipse cx="89.1354" cy="92.0841" rx="89.1354" ry="92.0841" transform="matrix(0.921797 0.387672 -0.36134 0.932434 210.041 166.719)" fill="#DB9899"/>
<ellipse cx="89.1354" cy="92.0841" rx="89.1354" ry="92.0841" transform="matrix(0.921797 0.387672 -0.36134 0.932434 105.191 163.306)" fill="#DB9899"/>
<ellipse cx="89.1354" cy="92.0841" rx="89.1354" ry="92.0841" transform="matrix(0.921797 0.387672 -0.36134 0.932434 243.391 62.3971)" fill="#DB9899"/>
<ellipse cx="89.1354" cy="92.0841" rx="89.1354" ry="92.0841" transform="matrix(0.921797 0.387672 -0.36134 0.932434 71.4409 67.7476)" fill="#DB9899"/>
<path d="M167.88 267.28C199.362 235.639 231.769 254.108 244.037 267.298" stroke="#54433A" stroke-width="10" stroke-linecap="round"/>
<path d="M123.88 168.819C165.865 158.946 182.861 178.234 186.111 189.113" stroke="#54433A" stroke-width="10" stroke-linecap="round"/>
<circle cx="165.773" cy="204.054" r="18" fill="#54433A"/>
<path d="M288.342 168.819C246.357 158.946 229.361 178.234 226.111 189.113" stroke="#54433A" stroke-width="10" stroke-linecap="round"/>
<circle cx="18" cy="18" r="18" transform="matrix(-1 0 0 1 264.448 186.054)" fill="#54433A"/>
</svg>
