<svg width="28" height="28" viewBox="0 0 28 28" fill="none" xmlns="http://www.w3.org/2000/svg">
<g clip-path="url(#clip0_131_1161)">
<path d="M16.4746 14.0002L27.4875 2.98851C28.1711 2.30489 28.1711 1.19653 27.4875 0.512959C26.8039 -0.170661 25.6955 -0.170661 25.012 0.512959L14.0002 11.5258L2.98851 0.512959C2.30489 -0.170661 1.19653 -0.170661 0.512965 0.512959C-0.170601 1.19658 -0.170655 2.30494 0.512965 2.98851L11.5258 14.0002L0.512965 25.012C-0.170655 25.6956 -0.170655 26.8039 0.512965 27.4875C1.19659 28.1711 2.30495 28.1711 2.98851 27.4875L14.0002 16.4746L25.0119 27.4875C25.6955 28.1711 26.8039 28.1711 27.4875 27.4875C28.1711 26.8039 28.1711 25.6955 27.4875 25.012L16.4746 14.0002Z" fill="#958B85"/>
</g>
<defs>
<clipPath id="clip0_131_1161">
<rect width="28" height="28" fill="white"/>
</clipPath>
</defs>
</svg>
