<svg width="336" height="55" viewBox="0 0 336 55" fill="none" xmlns="http://www.w3.org/2000/svg">
<path d="M85.6557 16.502C85.5777 18.062 85.4737 19.622 85.3177 21.13C85.1097 23.21 83.8097 24.25 81.9897 24.25C79.8837 24.25 78.4797 23.054 78.7137 20.714C79.3897 15.124 79.3897 9.508 78.7397 4.152C78.4797 1.578 79.8837 0.355999 81.9897 0.355999C83.8097 0.355999 85.1097 1.396 85.3177 3.528C85.4477 4.75 85.5257 5.972 85.6037 7.246L86.3577 7.168C87.5537 6.96 88.2557 8.39 88.2557 11.848C88.2557 15.332 87.5537 16.736 86.3577 16.606L85.6557 16.502ZM66.3377 17.1C66.5977 13.044 70.2897 9.404 73.8257 7.454C74.2937 7.194 73.8257 6.388 73.3837 6.7C71.9277 7.766 69.9777 8.598 68.1317 8.728C66.2077 8.91 64.0497 7.87 63.7377 5.972C63.3997 3.944 64.6737 2.618 66.5717 1.916C68.1317 1.344 69.9777 1.162 72.2657 1.162C75.8537 1.162 77.4657 3.086 78.0117 5.998C78.6617 9.664 78.5577 14.734 77.6477 18.504C76.9457 21.442 74.9177 23.574 71.3037 23.314C68.1837 23.106 66.1297 20.74 66.3377 17.1ZM116.327 16.502C116.249 18.062 116.145 19.622 115.989 21.13C115.781 23.21 114.481 24.25 112.661 24.25C110.555 24.25 109.151 23.054 109.385 20.714C110.061 15.124 110.061 9.508 109.411 4.152C109.151 1.578 110.555 0.355999 112.661 0.355999C114.481 0.355999 115.781 1.396 115.989 3.528C116.119 4.75 116.197 5.972 116.275 7.246L117.029 7.168C118.225 6.96 118.927 8.39 118.927 11.848C118.927 15.332 118.225 16.736 117.029 16.606L116.327 16.502ZM100.545 13.85C100.233 14.058 100.467 14.526 100.805 14.292C101.663 13.668 103.353 13.148 104.783 13.148C106.629 13.148 108.605 14.266 108.865 17.1C109.307 21.78 106.317 23.08 101.923 23.08C98.1009 23.08 95.9429 21.884 95.2929 17.958C94.6689 14.5 95.0589 7.506 95.3449 4.048C95.5789 1.864 96.7489 1.136 98.6989 1.136C100.649 1.136 101.923 1.864 102.079 4.074C102.287 6.284 102.313 11.952 101.949 13.096C101.351 13.304 100.883 13.564 100.545 13.85ZM147.024 16.502C146.946 18.062 146.842 19.622 146.686 21.13C146.478 23.21 145.178 24.25 143.358 24.25C141.252 24.25 139.848 23.054 140.082 20.714C140.758 15.124 140.758 9.508 140.108 4.152C139.848 1.578 141.252 0.355999 143.358 0.355999C145.178 0.355999 146.478 1.396 146.686 3.528C146.816 4.75 146.894 5.972 146.972 7.246L147.726 7.168C148.922 6.96 149.624 8.39 149.624 11.848C149.624 15.332 148.922 16.736 147.726 16.606L147.024 16.502ZM132.464 9.534C133.062 10.782 133.036 11.848 132.62 13.018C131.866 13.278 131.424 13.512 130.904 13.824C130.566 14.006 130.774 14.5 131.216 14.292C132.438 13.59 133.946 13.096 135.532 13.096C137.872 13.096 139.172 14.448 139.562 17.1C139.978 19.752 138.912 21.598 136.702 22.43C135.194 23.002 133.322 23.08 131.528 23.08C128.174 23.08 126.614 21.13 126.094 17.958C125.522 14.474 125.522 9.95 126.094 6.466C126.614 3.294 127.914 1.708 130.124 1.396C132.074 1.136 133.946 1.136 135.87 1.344C138.054 1.578 139.25 2.93 139.25 5.374C139.25 7.896 138.184 9.534 135.87 9.534H132.464ZM177.747 16.502C177.669 18.062 177.565 19.622 177.409 21.13C177.201 23.21 175.901 24.25 174.081 24.25C171.975 24.25 170.571 23.054 170.805 20.714C171.481 15.124 171.481 9.508 170.831 4.152C170.571 1.578 171.975 0.355999 174.081 0.355999C175.901 0.355999 177.201 1.396 177.409 3.528C177.539 4.75 177.617 5.972 177.695 7.246L178.449 7.168C179.645 6.96 180.347 8.39 180.347 11.848C180.347 15.332 179.645 16.736 178.449 16.606L177.747 16.502ZM156.219 19.154C155.881 16.996 155.855 14.734 156.219 12.862C156.687 10.834 157.311 9.404 159.599 9.404C161.237 9.404 162.823 9.326 164.487 9.066C164.877 9.014 164.877 8.208 164.487 8.26C162.901 8.494 161.471 8.598 159.911 8.598C157.103 8.598 156.219 7.506 156.219 5.4C156.219 3.32 157.545 1.994 160.093 1.474C162.225 1.084 163.603 1.084 165.423 1.344C167.503 1.656 169.245 2.358 169.713 4.75C170.103 6.83 170.129 9.196 169.713 10.938C169.453 12.056 168.673 12.42 167.529 12.42C164.565 12.446 162.121 12.914 160.405 13.694C159.963 13.928 160.249 14.63 160.691 14.474C162.173 13.824 164.149 13.2 165.995 13.2C168.829 13.2 170.181 14.708 170.415 17.438C170.753 22.04 167.243 23.236 163.473 23.236C158.949 23.236 156.635 21.754 156.219 19.154ZM208.367 7.246L209.121 7.168C210.317 6.96 211.019 8.39 211.019 11.848C211.019 15.332 210.317 16.736 209.121 16.606L208.419 16.502C208.341 18.062 208.237 19.622 208.081 21.13C207.873 23.21 206.573 24.25 204.753 24.25C202.647 24.25 201.243 23.054 201.477 20.714C202.153 15.124 202.153 9.508 201.503 4.152C201.243 1.578 202.647 0.355999 204.753 0.355999C206.573 0.355999 207.873 1.396 208.081 3.528C208.211 4.75 208.289 5.972 208.367 7.246ZM187.307 20.532C186.787 16.528 186.787 7.766 187.307 3.762C187.463 2.332 188.217 1.526 189.621 1.396C192.585 1.136 195.653 1.136 198.565 1.396C199.943 1.526 200.749 2.332 200.905 3.762C201.425 7.766 201.425 16.528 200.905 20.532C200.749 21.936 199.943 22.742 198.565 22.846C195.653 23.132 192.585 23.132 189.621 22.846C188.217 22.742 187.463 21.936 187.307 20.532ZM192.559 13.434C193.807 13.278 194.977 12.446 195.913 11.562C196.381 11.172 195.731 10.522 195.393 10.808C194.457 11.614 193.469 12.16 192.143 12.576C191.727 12.68 191.987 13.512 192.559 13.434ZM239.376 16.554C239.298 18.114 239.22 19.648 239.064 21.13C238.856 23.21 237.53 24.25 235.71 24.25C233.604 24.25 232.174 23.054 232.486 20.714C233.11 15.124 233.11 9.508 232.512 4.152C232.174 1.578 233.604 0.355999 235.71 0.355999C237.53 0.355999 238.856 1.396 239.064 3.528C239.194 4.724 239.272 5.972 239.35 7.22L239.844 7.168C241.04 6.96 241.742 8.39 241.742 11.848C241.742 15.332 241.04 16.736 239.844 16.606L239.376 16.554ZM223.828 6.284C224.504 6.05 225.154 6.05 225.83 6.284V4.88C225.83 2.254 226.506 1.188 228.872 1.188C230.874 1.188 231.758 2.41 231.992 5.608C232.33 9.43 232.382 14.292 231.992 17.802C231.732 20.532 230.692 22.144 229.132 22.508C226.116 23.288 223.542 23.288 220.526 22.508C218.914 22.144 217.874 20.532 217.588 17.802C217.25 14.292 217.276 9.43 217.588 5.608C217.9 2.28 218.68 1.188 220.994 1.188C223.308 1.188 223.828 2.384 223.828 4.88V6.284ZM222.762 13.252C224.114 13.252 225.362 13.486 226.506 14.11C226.896 14.318 227.364 13.538 226.792 13.2C225.622 12.524 224.192 12.134 222.918 12.316C222.372 12.368 222.346 13.252 222.762 13.252ZM269.839 16.502C269.761 18.062 269.657 19.622 269.501 21.13C269.293 23.21 267.993 24.25 266.173 24.25C264.067 24.25 262.663 23.054 262.897 20.714C263.573 15.124 263.573 9.508 262.923 4.152C262.663 1.578 264.067 0.355999 266.173 0.355999C267.993 0.355999 269.293 1.396 269.501 3.528C269.631 4.75 269.709 5.972 269.787 7.246L270.541 7.168C271.737 6.96 272.439 8.39 272.439 11.848C272.439 15.332 271.737 16.736 270.541 16.606L269.839 16.502ZM252.029 23.236C249.611 23.236 248.129 21.442 248.025 16.918C247.921 12.888 248.441 10.834 249.897 9.482C251.197 8.26 251.977 7.22 251.977 4.828C251.977 2.098 252.939 1.084 255.279 1.084C257.411 1.084 258.503 2.098 258.503 4.724C258.503 6.908 259.725 8.104 261.025 9.508C262.013 10.574 262.715 12.394 262.559 17.178C262.377 22.404 261.545 23.34 259.725 23.34C257.385 23.34 256.579 22.508 256.579 17.152C256.579 14.032 256.319 12.082 255.279 10.34C254.967 9.82 254.161 10.184 254.629 10.886C255.435 12.16 255.799 14.032 255.799 17.542C255.799 22.404 254.863 23.236 252.029 23.236ZM8.17181 44.894C8.2758 46.948 7.5478 49.34 4.5318 49.34C2.5298 49.34 1.0738 48.066 0.943805 46.064C0.839805 43.516 0.787805 40.864 0.787805 38.212C0.787805 31.998 2.6338 27.11 9.44581 27.11C16.2838 27.11 18.1558 31.998 18.1558 38.212C18.1558 40.864 18.1038 43.516 17.9738 46.064C17.8698 48.066 16.3878 49.34 14.3598 49.34C11.3958 49.34 10.6158 46.922 10.7198 44.894C9.6018 45.18 9.31581 45.18 8.17181 44.894ZM11.6818 37.796C10.6418 37.016 9.26381 36.834 7.9638 36.782C7.3658 36.756 7.3658 37.666 7.80781 37.718C9.08181 37.796 10.1478 38.03 11.3698 38.68C11.7338 38.888 12.1498 38.082 11.6818 37.796ZM42.4296 38.056C44.2496 38.628 45.0816 40.37 45.0816 43.36C45.0816 47.13 42.3776 48.872 38.1916 49.366C37.1776 49.47 36.0336 49.522 34.9156 49.522C33.3556 49.522 31.7956 49.418 30.4436 49.288C28.4936 49.08 26.4916 47.494 26.3096 44.764C26.0496 40.24 26.1276 36.184 26.3356 31.608C26.4916 28.852 28.4936 27.292 30.4436 27.084C31.7696 26.954 33.3296 26.85 34.8636 26.85C36.0336 26.824 37.1776 26.876 38.1916 27.006C42.3776 27.448 44.7176 28.696 44.7176 32.96C44.7176 35.404 43.5996 37.744 39.8296 37.744C39.4136 37.744 39.4136 38.524 39.8296 38.524C40.5576 38.524 41.5456 38.472 42.4296 38.056ZM33.1476 34.26C34.2396 34.858 35.3576 35.066 36.5796 34.936C37.1776 34.858 37.0996 33.948 36.6836 33.974C35.3836 34.052 34.4736 33.844 33.3556 33.376C32.9396 33.194 32.6016 33.948 33.1476 34.26ZM33.1476 41.904C34.2396 42.502 35.3576 42.71 36.5796 42.58C37.1776 42.502 37.0996 41.592 36.6836 41.618C35.3836 41.696 34.4736 41.488 33.3556 40.994C32.9396 40.812 32.6016 41.592 33.1476 41.904ZM63.2918 49.522C55.0238 49.522 52.5538 44.452 52.5538 38.186C52.5538 31.946 55.0238 26.85 63.2918 26.85C65.6578 26.85 67.6078 27.214 69.0638 28.02C71.1178 29.06 71.1698 31.348 70.2078 33.064C69.2198 34.858 67.2178 36.106 65.1638 35.066C64.7218 34.832 64.0978 34.65 63.2918 34.65C60.8218 34.65 59.8598 36.314 59.8598 38.16C59.8598 40.058 60.8218 41.722 63.2918 41.722C64.0978 41.722 64.7218 41.54 65.1638 41.306C67.2698 40.24 69.3238 41.592 70.2598 43.438C71.1698 45.18 71.0398 47.312 69.0638 48.378C67.6078 49.158 65.6578 49.522 63.2918 49.522ZM82.596 49.288C80.646 49.08 78.644 47.494 78.462 44.764C78.202 40.24 78.28 36.184 78.488 31.608C78.644 28.852 80.646 27.292 82.596 27.084C83.922 26.954 85.482 26.85 87.016 26.85C92.892 26.798 97.156 29.918 97.156 37.744C97.182 45.544 92.892 49.496 87.068 49.522C85.508 49.522 83.948 49.418 82.596 49.288ZM86.886 39.304C86.678 39.694 87.458 40.084 87.796 39.59C88.498 38.602 88.706 37.172 88.732 35.898C88.732 35.274 87.822 35.3 87.822 35.716C87.744 36.99 87.51 38.056 86.886 39.304ZM105.201 45.336C104.941 43.126 104.889 40.786 104.889 38.186C104.889 35.586 104.941 33.246 105.201 31.062C105.565 27.734 109.621 26.876 113.365 26.85C117.317 26.824 121.451 27.552 121.451 31.712C121.451 33.402 120.827 33.792 118.773 33.246C118.097 33.064 117.291 32.934 116.641 32.934C114.769 32.934 113.495 33.22 112.377 33.662C111.831 33.87 112.013 34.624 112.611 34.39C114.899 33.584 118.279 33.506 119.683 34.364C120.879 35.118 121.451 36.236 121.451 38.186C121.451 40.136 120.879 41.28 119.683 42.008C118.279 42.892 114.899 42.814 112.611 41.982C112.013 41.774 111.831 42.502 112.377 42.71C113.495 43.152 114.769 43.412 116.641 43.412C117.291 43.412 118.097 43.308 118.773 43.126C120.827 42.606 121.451 42.97 121.451 44.634C121.451 48.794 117.317 49.548 113.365 49.522C109.621 49.496 105.565 48.612 105.201 45.336ZM136.957 42.216C136.905 43.516 136.827 44.686 136.697 45.83C136.463 47.78 135.423 49.314 133.265 49.314C131.055 49.314 130.015 47.78 129.807 45.83C129.547 43.62 129.417 40.786 129.417 38.186C129.417 35.586 129.469 33.246 129.729 31.062C130.093 27.734 134.357 26.876 138.075 26.85C143.769 26.824 145.979 27.89 145.979 30.802C145.979 32.986 145.069 34.156 143.431 33.87C142.729 33.766 141.819 33.688 141.169 33.688C139.297 33.688 138.023 33.948 136.905 34.39C136.359 34.624 136.541 35.326 137.139 35.118C139.427 34.286 142.807 34.208 144.211 35.092C145.407 35.872 145.979 36.73 145.979 38.68C145.979 40.604 145.407 41.514 144.211 42.242C142.807 43.126 139.271 43.048 136.957 42.216ZM163.778 49.522C157.018 49.522 153.482 44.426 153.482 38.186C153.482 31.972 155.952 26.85 164.22 26.85C166.586 26.85 168.536 27.214 169.992 28.02C172.15 29.164 172.098 31.608 170.928 33.402C169.914 35.014 168.016 36.028 166.092 35.066C165.65 34.832 165.026 34.65 164.22 34.65C161.75 34.65 160.788 36.314 160.788 38.186C160.788 40.058 161.75 41.722 163.856 41.722C164.766 41.722 165.962 41.332 166.534 40.942C167.158 40.526 167.574 40.162 167.938 39.642C168.198 39.252 167.756 38.966 167.496 39.304C167.21 39.72 166.716 40.266 166.144 40.474C164.272 41.15 162.842 40.188 162.842 38.654C162.842 37.354 163.57 36.704 165.052 36.522C166.924 36.288 168.9 36.236 170.72 36.652C172.41 37.042 173.606 38.68 173.606 40.526C173.606 45.518 170.2 49.522 163.778 49.522ZM191.066 47.416C189.896 49.184 188.102 49.782 186.074 49.782C183.11 49.782 180.77 48.222 180.77 45.362C180.77 42.762 182.772 41.124 185.424 40.604C187.842 40.11 189.532 39.018 190.39 37.718C190.728 37.198 189.974 36.678 189.636 37.172C188.622 38.654 186.594 39.746 184.358 39.746C182.33 39.746 181.264 38.68 181.264 37.224C181.264 34.598 184.67 32.908 188.7 32.908C192.834 32.908 195.2 34.364 196.266 37.38C197.176 39.928 197.15 44.036 196.422 47.208C196.084 48.742 195.2 49.548 193.718 49.548C192.262 49.548 191.378 48.82 191.066 47.416ZM186.646 45.57C187.894 45.414 189.064 44.582 190.026 43.776C190.546 43.36 189.896 42.736 189.558 42.996C188.57 43.828 187.634 44.374 186.256 44.712C185.84 44.816 186.048 45.648 186.646 45.57ZM209.699 37.432C209.985 37.484 210.089 37.38 210.245 37.12C211.493 34.832 213.651 33.688 216.277 33.688C219.553 33.688 222.907 35.664 222.907 40.942C222.907 47.598 218.331 49.522 213.859 49.522C207.073 49.522 204.395 46.194 204.317 39.876C204.265 36.912 204.395 33.35 204.681 30.568C204.863 28.644 206.059 27.11 208.269 27.11C210.427 27.11 211.623 28.644 211.805 30.568C211.883 31.296 211.987 33.168 212.013 34.026C210.921 34.676 209.881 35.924 209.465 36.73C209.283 37.068 209.413 37.328 209.699 37.432ZM213.183 41.15C214.223 41.93 215.471 42.398 216.745 42.658C217.317 42.736 217.447 41.826 217.031 41.722C215.783 41.488 214.769 41.098 213.651 40.318C213.287 40.058 212.741 40.812 213.183 41.15ZM235.336 39.408C235.206 39.486 235.128 39.798 235.258 40.006C236.272 41.462 238.118 42.502 240.12 42.554C242.512 42.606 243.89 43.672 243.916 46.038C243.942 48.43 242.486 49.496 240.094 49.496C234.062 49.522 229.824 47.806 229.824 41.02C229.85 34.052 234.972 31.946 240.978 33.298C243.604 33.896 244.41 36.496 243.994 38.706C243.682 40.448 242.564 41.956 241.056 41.956C238.924 41.956 237.026 41.046 235.83 39.382C235.7 39.2 235.466 39.252 235.336 39.408ZM264.208 37.432C264.494 37.328 264.624 37.068 264.468 36.73C264.052 35.924 262.986 34.676 261.92 34.026C261.946 33.168 262.024 31.296 262.102 30.568C262.31 28.644 263.506 27.11 265.664 27.11C267.874 27.11 269.07 28.644 269.252 30.568C269.538 33.35 269.668 36.912 269.616 39.876C269.512 46.194 266.834 49.496 260.048 49.522C255.576 49.522 251.026 47.598 251.026 40.942C251.026 35.664 254.38 33.688 257.63 33.688C260.23 33.688 262.44 34.832 263.688 37.12C263.818 37.38 263.948 37.484 264.208 37.432ZM257.188 42.658C258.436 42.398 259.684 41.956 260.75 41.15C261.166 40.838 260.646 40.058 260.282 40.318C259.164 41.098 258.15 41.488 256.876 41.722C256.486 41.826 256.564 42.736 257.188 42.658ZM280.511 48.352C278.171 46.87 277.027 44.166 276.975 41.488C276.923 38.264 278.327 35.04 281.005 33.792C282.305 33.194 283.761 32.908 285.139 32.908C288.831 32.908 292.003 34.728 291.769 38.836C291.639 41.306 290.391 42.45 287.765 43.074C286.413 43.412 284.333 43.308 283.553 42.06C283.423 41.852 282.825 41.852 282.903 42.346C283.007 43.1 284.307 44.14 286.153 44.14C286.491 44.14 286.985 44.036 287.297 43.958C289.637 43.282 290.651 43.256 291.379 45.414C291.951 47.052 291.067 48.274 288.493 49.08C287.245 49.47 286.439 49.522 285.165 49.522C283.501 49.522 281.863 49.21 280.511 48.352ZM283.969 38.602C285.295 38.238 286.387 38.29 287.635 38.55C288.051 38.602 288.285 37.718 287.687 37.614C286.465 37.354 285.061 37.146 283.891 37.64C283.371 37.848 283.553 38.706 283.969 38.602ZM301.595 40.682C300.841 40.656 300.165 40.578 299.723 40.318C298.865 39.824 298.475 38.862 298.475 37.484C298.475 35.3 299.671 34.728 301.621 34.52C301.621 34.182 301.647 33.87 301.673 33.532C301.699 32.986 301.725 32.44 301.777 31.894C301.985 29.086 304.065 26.85 306.821 26.85C310.877 26.85 312.047 28.28 312.047 30.334C312.047 31.894 311.345 33.194 310.175 33.09C308.849 32.96 307.133 33.012 305.885 33.298C305.495 33.376 305.573 33.922 306.015 33.844C307.627 33.532 309.785 33.454 310.799 34.026C311.657 34.52 312.047 35.508 312.047 36.886C312.047 38.888 311.007 39.72 309.161 39.85C309.109 41.904 308.979 43.906 308.797 45.856C308.589 47.806 307.523 49.34 305.365 49.34C303.155 49.34 302.115 47.806 301.907 45.856C301.725 44.14 301.647 42.398 301.595 40.682ZM330.307 32.908L331.659 31.66C332.725 30.672 334.077 30.88 335.039 32.024C335.949 33.142 335.949 34.39 334.987 35.456L334.701 35.794C334.675 36.106 335.273 36.444 335.273 38.472C335.273 40.864 334.415 43.308 332.127 44.452C330.957 43.984 329.579 43.646 327.889 43.62C327.239 43.62 327.187 44.348 327.837 44.348C333.193 44.608 335.585 47.572 335.013 50.276C334.519 52.564 331.815 54.67 326.927 54.67C321.753 54.67 319.465 52.382 319.049 49.834C318.711 47.624 319.751 45.18 321.649 43.75C319.803 42.632 319.023 40.214 319.543 37.926C320.141 35.196 322.663 32.622 327.577 32.622C328.435 32.622 329.215 32.726 330.307 32.908ZM326.771 39.642C326.563 40.032 327.317 40.396 327.655 39.928C328.383 38.94 328.487 37.51 328.539 36.236C328.539 35.612 327.707 35.638 327.681 36.08C327.603 37.328 327.369 38.42 326.771 39.642ZM326.563 50.926C326.381 51.342 327.109 51.68 327.421 51.212C328.123 50.224 328.279 48.794 328.331 47.546C328.331 46.948 327.473 46.948 327.447 47.39C327.369 48.638 327.187 49.704 326.563 50.926Z" fill="black"/>
</svg>
