<svg width="355" height="53" viewBox="0 0 355 53" fill="none" xmlns="http://www.w3.org/2000/svg">
<path d="M74.6349 22.34V21.378C79.2889 21.378 82.3829 17.53 82.3829 10.978V1.696H74.8429V0.499998H87.6609C88.0769 0.499998 88.3629 0.811999 88.3629 1.228V10.562C88.3629 20.078 79.9129 22.34 74.6349 22.34ZM90.1829 22.34V0.499998H95.9289V9.782H98.1909V11.238H95.9289V22.34H90.1829ZM120.728 22.34V21.144C119.714 21.742 117.66 22.08 115.632 22.08H108.768C107.052 22.08 105.908 20.936 105.908 19.22V0.499998H111.654V20.182C111.654 20.598 111.94 20.884 112.356 20.884H115.814C117.764 20.884 119.766 20.546 120.728 19.948V0.499998L126.474 0.577999V9.782H128.736V11.238H126.474V22.34H120.728ZM151.273 22.34V21.144C150.259 21.742 148.205 22.08 146.177 22.08H139.313C137.597 22.08 136.453 20.936 136.453 19.22V0.499998H149.375V1.696H142.199V20.182C142.199 20.598 142.485 20.884 142.901 20.884H146.359C148.309 20.884 150.311 20.546 151.273 19.948V0.499998H157.019V9.782H159.281V11.238H157.019V22.34H151.273ZM172.484 21.144H177.138C179.088 21.144 181.116 20.832 182.052 20.208V0.499998H187.798V10.042H189.826V11.472H187.798V22.34H182.052V21.404C181.038 22.028 179.01 22.34 176.956 22.34H170.066C168.064 22.34 166.764 21.04 166.764 19.038C166.764 17.036 168.064 15.736 170.066 15.736H175.188V11.862H169.884C167.986 11.862 166.764 10.614 166.764 8.716C166.764 6.818 167.986 5.596 169.884 5.596H175.188V1.696H167.232V0.499998H177.814C179.686 0.499998 180.934 1.748 180.934 3.646C180.934 5.544 179.686 6.792 177.814 6.792H172.484V10.666H177.814C179.686 10.666 180.934 11.888 180.934 13.786C180.934 15.684 179.686 16.932 177.814 16.932H172.484V21.144ZM211.063 22.08H199.571C197.855 22.08 196.711 20.936 196.711 19.22V0.499998H211.063V22.08ZM212.363 22.34V0.499998H218.109V9.782H220.371V11.238H218.109V22.34H212.363ZM205.317 20.884V1.696H202.431V20.182C202.431 20.598 202.717 20.884 203.159 20.884H205.317ZM242.907 22.34V0.499998H248.653V9.782H250.915V11.238H248.653V22.34H242.907ZM227.255 22.08V0.499998H232.975V6.532H235.861V0.499998H241.607V22.08H227.255ZM232.975 11.316H235.861V7.728H232.975V11.316ZM232.975 16.1H235.861V12.512H232.975V16.1ZM232.975 20.884H235.861V17.296H232.975V20.884ZM257.852 21.846V20.884C259.984 20.884 262.272 18.466 262.272 14.306V0.499998H267.654V14.306C267.654 19.038 263.182 21.846 257.852 21.846ZM273.452 22.34V0.499998H279.198V9.782H281.46V11.238H279.198V22.34H273.452ZM267.394 19.168C267.394 17.582 268.486 16.49 270.072 16.49C271.658 16.49 272.75 17.582 272.75 19.168C272.75 20.754 271.658 21.846 270.072 21.846C268.486 21.846 267.394 20.754 267.394 19.168ZM0.601289 47.872L7.77729 27.02H14.2513L21.4273 47.872H15.4473L14.6413 45.298H7.38729L6.58129 47.872H0.601289ZM8.55729 41.476H13.4713L11.0273 33.598L8.55729 41.476ZM7.75129 44.102H14.2773L13.8353 42.672H8.19329L7.75129 44.102ZM30.444 47.872V27.02H41.936C45.706 27.02 48.124 28.97 48.124 32.506C48.124 34.612 46.538 36.432 44.536 37.186C46.876 37.758 48.618 39.396 48.618 42.36C48.618 46.338 46.2 47.872 42.43 47.872H30.444ZM36.164 36.822H38.842C41.572 36.822 42.404 34.924 42.404 32.506C42.404 30.062 41.572 28.216 38.842 28.216H36.164V36.822ZM36.164 46.676H39.31C42.066 46.676 42.872 45.272 42.872 42.36C42.872 39.422 42.066 38.018 39.31 38.018H36.164V46.676ZM71.4868 41.424H77.4148C77.0508 46.208 72.9688 48.574 67.3788 48.574C60.6448 48.574 56.7968 45.012 56.7968 37.394C56.7968 29.776 60.6448 26.214 67.3788 26.214C72.9688 26.214 77.0508 28.58 77.4148 33.364H71.4868C71.4868 28.684 69.4848 27.41 67.3788 27.41C64.8568 27.41 62.5168 29.36 62.5168 37.394C62.5168 45.428 64.8568 47.378 67.3788 47.378C69.4848 47.378 71.4868 46.104 71.4868 41.424ZM86.6842 47.872V27.02H95.4462C102.31 27.02 106.132 30.166 106.132 37.446C106.132 44.726 102.31 47.872 95.4462 47.872H86.6842ZM92.4042 46.91H95.4462C98.0982 46.91 100.412 45.246 100.412 37.446C100.412 29.646 98.0982 27.982 95.4462 27.982H92.4042V46.91ZM115.401 47.872V27.02H130.949V28.216H121.121V31.57H130.949V32.766H121.121V36.458H130.949V37.654H121.121V41.424H130.949V42.62H121.121V46.676H130.949V47.872H115.401ZM140.208 47.872V27.02H155.756V28.216H145.928V36.692H155.262V37.888H145.928V47.872H140.208ZM174.219 39.604V38.408H184.697V39.474C184.697 46.208 180.849 48.574 174.479 48.574C167.615 48.574 163.793 45.012 163.793 37.394C163.793 29.776 167.615 26.214 174.479 26.214C180.199 26.214 184.281 28.58 184.645 33.858H178.743C178.847 28.554 176.689 27.176 174.479 27.176C171.827 27.176 169.513 29.23 169.513 37.394C169.513 45.558 171.827 47.612 174.479 47.612C176.949 47.612 178.925 46.312 178.925 39.604H174.219ZM174.219 36.952V35.756H184.697V36.952H174.219ZM194.506 35.314L194.194 33.936C196.352 33.442 198.822 33.13 201.188 33.13C206.102 33.13 208.286 34.04 208.286 37.68V44.414C208.286 45.22 208.338 47.144 208.39 47.872H202.904C202.852 47.612 202.774 47.17 202.774 46.91C201.682 47.742 200.07 48.054 198.614 48.054C194.792 48.054 192.608 46.442 192.608 43.452C192.608 39.734 195.676 37.966 201.162 37.966H202.774V36.874C202.774 35.314 202.592 34.456 200.928 34.456H200.148C198.276 34.456 196.352 34.82 194.506 35.314ZM202.774 44.544V39.162H202.358C199.524 39.162 198.12 41.268 198.12 43.452C198.12 45.48 199.03 46.39 200.226 46.39C201.422 46.39 202.462 45.688 202.774 44.544ZM217.798 47.872V26.994H223.31V34.716C224.194 33.702 225.728 33.13 227.288 33.13C232.02 33.13 234.724 35.73 234.724 40.67C234.724 45.454 231.968 48.21 227.288 48.21C225.624 48.21 224.22 47.482 223.31 46.26V47.872H217.798ZM223.31 36.146V44.596C223.726 45.766 224.792 46.78 225.858 46.78C228.224 46.78 229.238 44.024 229.238 40.67C229.238 37.55 228.224 34.56 225.858 34.56C224.792 34.56 223.778 35.21 223.31 36.146ZM254.226 43.634H259.738C259.478 46.936 255.708 48.574 251.132 48.574C245.698 48.574 242.526 46.104 242.526 40.852C242.526 35.6 245.698 33.13 251.132 33.13C255.708 33.13 259.478 34.768 259.738 38.07H254.226C254.226 35.028 252.588 34.17 251.132 34.17C249.39 34.17 248.038 35.496 248.038 40.852C248.038 46.208 249.39 47.534 251.132 47.534C252.588 47.534 254.226 46.676 254.226 43.634ZM278.975 47.872V46.26C278.065 47.482 276.661 48.21 274.997 48.21C270.317 48.21 267.561 45.454 267.561 40.67C267.561 35.73 270.265 33.13 274.997 33.13C276.557 33.13 278.091 33.702 278.975 34.716V26.994H284.487V47.872H278.975ZM278.975 44.596V36.146C278.507 35.21 277.493 34.56 276.427 34.56C274.061 34.56 273.047 37.55 273.047 40.67C273.047 44.024 274.061 46.78 276.427 46.78C277.493 46.78 278.559 45.766 278.975 44.596ZM304.873 43.946H310.385C310.125 47.066 307.187 48.574 301.935 48.574C296.449 48.574 293.485 45.636 293.485 40.488C293.485 35.73 296.527 33.13 301.987 33.13C307.265 33.13 310.515 35.704 310.515 40.488V41.19H298.997C299.049 45.558 299.855 47.534 301.935 47.534C303.833 47.534 304.873 46.338 304.873 43.946ZM298.971 39.994H305.003C305.003 35.626 304.067 34.17 301.987 34.17C299.907 34.17 298.971 35.626 298.971 39.994ZM320.319 47.872V34.716H317.719V33.52H320.319V31.726C320.319 28.892 322.737 27.02 326.845 27.02H330.303V28.216H327.937C326.741 28.216 325.831 29.178 325.831 31.024V33.52H329.809V34.716H325.831V47.872H320.319ZM339.359 52.188L339.671 50.81C341.517 51.304 343.597 51.668 345.469 51.668C347.939 51.668 348.875 50.108 348.875 47.378C347.757 48.236 346.639 48.6 345.183 48.6C340.321 48.6 337.513 45.35 337.513 40.878C337.513 36.406 340.035 33.13 345.131 33.13C346.561 33.13 347.887 33.624 348.563 34.56V33.52H354.075V46.416C354.075 50.836 351.553 52.994 345.937 52.994C343.337 52.994 341.465 52.734 339.359 52.188ZM348.563 45.454V36.666C348.563 35.314 347.367 34.326 345.989 34.326C343.623 34.326 343.025 37.68 343.025 40.878C343.025 44.024 343.545 47.404 345.703 47.404C346.951 47.404 348.199 46.728 348.563 45.454Z" fill="black"/>
</svg>
