<svg width="253" height="51" viewBox="0 0 253 51" fill="none" xmlns="http://www.w3.org/2000/svg">
<path d="M36.3001 5.946C36.4561 5.478 37.0021 5.582 37.7821 5.504C39.0301 5.4 41.9161 5.244 43.8401 4.958C44.2041 4.932 44.6201 4.958 44.9581 5.166C45.4001 5.4 45.7381 5.894 45.6601 6.336C44.6981 10.652 41.0841 15.254 38.7441 16.424C38.3541 16.632 37.9121 16.762 37.3921 16.58C36.8721 16.424 36.6901 15.852 37.2621 15.41C39.9661 13.278 42.0461 10.522 43.2941 6.804C41.6821 7.012 39.7321 7.168 38.2241 7.35C37.1321 7.506 36.0401 6.7 36.3001 5.946ZM48.4941 0.641999C48.9881 0.2 49.7681 0.485999 50.1321 0.901998C50.8341 1.682 51.3281 2.722 51.3021 3.762L51.2241 9.69C51.9521 9.638 52.6801 9.586 53.4601 9.534C53.8501 9.534 54.3181 9.508 54.6821 9.534C55.3841 9.56 55.5661 10.002 55.5661 10.444C55.5661 11.12 55.0981 11.406 54.6041 11.458C54.3701 11.51 54.2401 11.328 53.4341 11.38C52.7321 11.406 51.9781 11.406 51.1981 11.432L51.0941 19.752C51.0681 20.792 50.8861 22.482 49.9241 22.586C49.2221 22.664 48.9621 21.026 48.9621 20.298L49.0661 4.542C49.0661 4.022 49.0141 3.216 48.7541 2.722C48.4421 2.098 47.9481 1.136 48.4941 0.641999ZM64.5323 5.322C65.1303 5.062 65.7543 5.27 65.8843 5.738C66.5343 7.974 66.6383 11.692 66.7683 14.162C68.4323 14.318 70.5383 14.006 73.4503 13.486C73.8403 13.408 74.2563 13.798 74.2823 14.344C74.3083 14.786 74.0743 15.228 73.7363 15.332C72.1243 15.826 68.6143 16.32 66.2483 16.086C65.3123 15.982 64.6623 15.436 64.6103 14.292C64.5063 11.9 64.4283 8.702 63.9603 6.414C63.8823 6.05 64.0643 5.53 64.5323 5.322ZM75.7383 0.641999C76.2323 0.2 77.0123 0.485999 77.3763 0.901998C78.0783 1.682 78.5723 2.722 78.5463 3.762L78.4683 9.69C79.1963 9.638 79.9243 9.586 80.7043 9.534C81.0943 9.534 81.5623 9.508 81.9263 9.534C82.6283 9.56 82.8103 10.002 82.8103 10.444C82.8103 11.12 82.3423 11.406 81.8483 11.458C81.6143 11.51 81.4843 11.328 80.6783 11.38C79.9763 11.406 79.2223 11.406 78.4423 11.432L78.3383 19.752C78.3123 20.792 78.1303 22.482 77.1683 22.586C76.4663 22.664 76.2063 21.026 76.2063 20.298L76.3103 4.542C76.3103 4.022 76.2583 3.216 75.9983 2.722C75.6863 2.098 75.1923 1.136 75.7383 0.641999ZM93.9084 14.24C95.5724 14.396 97.4704 14.084 100.382 13.564C100.772 13.486 101.188 13.85 101.214 14.396C101.24 14.838 101.006 15.228 100.668 15.332C99.0564 15.826 95.8064 16.32 93.4404 16.086C92.5044 15.982 91.8544 15.436 91.8024 14.292C91.7504 13.018 91.7504 8.962 91.4644 8C91.3084 7.376 90.8404 6.596 91.1004 6.102C91.3084 5.712 91.5424 5.478 92.2444 5.504C92.7124 5.53 93.1804 5.53 93.6744 5.53C94.8184 5.53 95.8064 5.426 97.0544 5.296C97.5744 5.244 98.0944 5.166 98.5884 5.14C99.4984 5.114 100.07 5.478 100.096 6.102C100.122 6.726 99.6804 7.142 98.7444 7.142C96.0924 7.22 95.0264 7.298 93.4404 7.376C93.7264 8.754 93.9344 12.81 93.9084 14.24ZM102.982 0.641999C103.476 0.2 104.256 0.485999 104.62 0.901998C105.322 1.682 105.816 2.722 105.79 3.762L105.712 9.69C106.44 9.638 107.168 9.586 107.948 9.534C108.338 9.534 108.806 9.508 109.17 9.534C109.872 9.56 110.054 10.002 110.054 10.444C110.054 11.12 109.586 11.406 109.092 11.458C108.858 11.51 108.728 11.328 107.922 11.38C107.22 11.406 106.466 11.406 105.686 11.432L105.582 19.752C105.556 20.792 105.374 22.482 104.412 22.586C103.71 22.664 103.45 21.026 103.45 20.298L103.554 4.542C103.554 4.022 103.502 3.216 103.242 2.722C102.93 2.098 102.436 1.136 102.982 0.641999ZM121.205 14.812C122.869 14.968 124.793 14.656 127.705 14.136C128.095 14.058 128.511 14.422 128.537 14.968C128.563 15.41 128.329 15.8 127.991 15.904C126.379 16.398 123.129 16.892 120.763 16.658C119.827 16.554 119.255 16.06 119.125 14.864C118.995 13.59 118.709 11.588 118.371 10.886C118.189 10.496 118.345 9.768 119.177 9.768C121.751 9.742 123.545 9.56 125.131 9.378L125.157 6.414C123.415 6.518 122.427 6.648 120.035 6.752C119.125 6.804 118.085 5.842 118.501 5.14C118.709 4.828 119.229 4.828 119.619 4.828C122.401 4.776 123.129 4.672 125.859 4.49C126.561 4.464 127.393 5.062 127.341 5.868C127.289 6.83 127.237 9.222 127.159 10.028C127.029 11.068 126.301 11.25 125.573 11.276C123.701 11.354 122.947 11.38 120.789 11.51L121.205 14.812ZM130.227 0.641999C130.721 0.2 131.501 0.485999 131.865 0.901998C132.567 1.682 133.061 2.722 133.035 3.762L132.957 9.69C133.685 9.638 134.413 9.586 135.193 9.534C135.583 9.534 136.051 9.508 136.415 9.534C137.117 9.56 137.299 10.002 137.299 10.444C137.299 11.12 136.831 11.406 136.337 11.458C136.103 11.51 135.973 11.328 135.167 11.38C134.465 11.406 133.711 11.406 132.931 11.432L132.827 19.752C132.801 20.792 132.619 22.482 131.657 22.586C130.955 22.664 130.695 21.026 130.695 20.298L130.799 4.542C130.799 4.022 130.747 3.216 130.487 2.722C130.175 2.098 129.681 1.136 130.227 0.641999ZM147.903 7.35C148.215 9.274 148.293 12.654 148.397 14.5C149.593 14.422 151.205 14.266 152.583 14.006C152.687 12.056 152.765 8.936 152.791 6.908C151.205 7.064 149.619 7.246 147.903 7.35ZM145.459 6.024C145.589 5.634 146.031 5.478 146.603 5.504C147.175 5.53 147.747 5.504 148.319 5.504C149.645 5.478 151.127 5.27 153.181 5.062C154.403 4.932 154.897 5.634 154.897 6.362C154.871 8.858 154.741 11.328 154.585 13.824C154.507 15.02 154.195 15.54 153.415 15.722C151.933 16.06 150.217 16.32 148.345 16.346C146.993 16.372 146.421 15.774 146.369 14.838C146.317 13.59 146.239 8.754 145.771 7.662C145.537 7.116 145.303 6.466 145.459 6.024ZM157.471 0.641999C157.965 0.2 158.745 0.485999 159.109 0.901998C159.811 1.682 160.305 2.722 160.279 3.762L160.201 9.69C160.929 9.638 161.657 9.586 162.437 9.534C162.827 9.534 163.295 9.508 163.659 9.534C164.361 9.56 164.543 10.002 164.543 10.444C164.543 11.12 164.075 11.406 163.581 11.458C163.347 11.51 163.217 11.328 162.411 11.38C161.709 11.406 160.955 11.406 160.175 11.432L160.071 19.752C160.045 20.792 159.863 22.482 158.901 22.586C158.199 22.664 157.939 21.026 157.939 20.298L158.043 4.542C158.043 4.022 157.991 3.216 157.731 2.722C157.419 2.098 156.925 1.136 157.471 0.641999ZM173.353 5.088C174.289 4.75 175.329 5.738 175.485 7.896C175.511 8.26 175.511 8.806 175.537 9.456C177.175 9.378 178.163 9.3 179.957 9.222C179.957 7.714 179.905 6.388 179.723 5.4C179.645 5.01 180.139 4.516 180.685 4.516C181.543 4.516 181.855 4.854 181.933 5.348C182.115 6.934 182.063 11.51 181.881 14.058C181.803 15.02 181.595 15.696 180.607 15.982C179.385 16.346 177.279 16.658 175.303 16.606C174.471 16.58 173.457 16.242 173.431 14.708C173.405 13.382 173.561 8.546 173.249 7.35C172.963 6.232 172.703 5.322 173.353 5.088ZM175.563 11.172C175.563 12.628 175.563 14.11 175.589 14.76C177.227 14.682 178.475 14.474 179.853 14.188C179.879 13.122 179.905 12.03 179.931 10.99C178.319 11.016 177.253 11.068 175.563 11.172ZM184.715 0.641999C185.209 0.2 185.989 0.485999 186.353 0.901998C187.055 1.682 187.549 2.722 187.523 3.762L187.445 9.69C188.173 9.638 188.901 9.586 189.681 9.534C190.071 9.534 190.539 9.508 190.903 9.534C191.605 9.56 191.787 10.002 191.787 10.444C191.787 11.12 191.319 11.406 190.825 11.458C190.591 11.51 190.461 11.328 189.655 11.38C188.953 11.406 188.199 11.406 187.419 11.432L187.315 19.752C187.289 20.792 187.107 22.482 186.145 22.586C185.443 22.664 185.183 21.026 185.183 20.298L185.287 4.542C185.287 4.022 185.235 3.216 184.975 2.722C184.663 2.098 184.169 1.136 184.715 0.641999ZM206.577 6.544C206.395 7.792 206.083 8.962 205.719 10.002C207.305 11.562 209.177 13.564 210.217 15.15C210.425 15.488 210.139 16.034 209.801 16.268C209.385 16.554 208.813 16.502 208.553 16.164C207.279 14.604 205.979 13.278 204.731 12.186C203.717 14.058 202.365 15.488 200.909 16.424C200.519 16.684 200.077 16.762 199.557 16.58C199.037 16.424 198.881 15.878 199.427 15.41C202.105 13.174 203.613 10.418 204.341 7.116C204.679 5.608 204.367 4.256 205.121 4.022C206.187 3.684 206.733 5.504 206.577 6.544ZM211.959 0.641999C212.453 0.2 213.233 0.485999 213.597 0.901998C214.299 1.682 214.793 2.722 214.767 3.762L214.689 9.69C215.417 9.638 216.145 9.586 216.925 9.534C217.315 9.534 217.783 9.508 218.147 9.534C218.849 9.56 219.031 10.002 219.031 10.444C219.031 11.12 218.563 11.406 218.069 11.458C217.835 11.51 217.705 11.328 216.899 11.38C216.197 11.406 215.443 11.406 214.663 11.432L214.559 19.752C214.533 20.792 214.351 22.482 213.389 22.586C212.687 22.664 212.427 21.026 212.427 20.298L212.531 4.542C212.531 4.022 212.479 3.216 212.219 2.722C211.907 2.098 211.413 1.136 211.959 0.641999ZM5.21245 30.1C5.39445 29.658 5.81045 29.424 6.25245 29.476C6.74645 29.424 7.05845 29.58 7.26645 30.126L11.4264 41.358C12.4404 44.062 12.4144 45.024 11.8944 45.206C11.0884 45.44 10.1264 43.75 9.76245 42.658L8.87845 40.162C7.50045 40.188 5.13445 40.24 3.57445 40.266L2.74245 42.658C2.35245 43.802 1.46845 45.44 0.662445 45.206C0.142445 45.024 0.168445 43.802 0.844445 41.982L5.21245 30.1ZM8.25445 38.368L6.25245 32.57L4.19845 38.446C5.36845 38.446 7.03245 38.394 8.25445 38.368ZM22.7661 45.076C21.8301 45.024 21.1801 44.426 21.1281 43.282C21.1021 42.008 21.1021 33.038 20.7901 32.076C20.6341 31.452 20.2701 30.724 20.4261 30.204C20.5561 29.788 20.8681 29.606 21.5441 29.606C22.0381 29.658 24.6381 29.45 25.4181 29.45C28.7721 29.502 30.5921 30.828 30.7221 33.272C30.8001 34.52 30.2021 36.236 28.2261 36.782C30.7741 37.276 31.6061 39.434 31.5281 40.812C31.3721 43.256 29.6041 44.738 26.1981 44.972C25.3921 45.024 23.6241 45.102 22.7661 45.076ZM25.5221 35.976C27.4201 35.846 28.7461 35.066 28.6421 33.48C28.5641 31.972 27.3941 31.296 25.2621 31.296C24.6381 31.296 23.6501 31.4 22.7401 31.452C22.8701 32.076 22.9741 33.948 23.0521 36.054C23.5981 36.08 24.2221 36.08 25.5221 35.976ZM23.1041 37.822C23.1821 40.058 23.2081 42.528 23.2081 43.152C24.0921 43.23 25.4441 43.152 26.0681 43.1C28.3301 42.892 29.3441 42.112 29.4221 40.604C29.5261 39.018 28.2001 38.082 26.3021 37.952C25.2881 37.874 23.8321 37.822 23.1041 37.822ZM39.9702 37.224C39.9702 32.752 41.7382 29.424 45.5862 29.242C47.4842 29.138 48.6542 29.528 49.6942 30.126C50.1882 30.412 50.3702 30.932 50.1362 31.504C49.9542 32.024 49.3302 32.232 48.8882 31.972C47.9262 31.348 46.9642 31.114 45.7942 31.192C43.3762 31.322 42.0502 33.688 42.0502 37.224C42.0502 41.15 43.7662 43.282 46.0802 43.23C47.2242 43.204 48.1342 42.814 49.0702 41.982C49.4862 41.644 50.1362 41.878 50.4222 42.346C50.6562 42.762 50.5782 43.36 50.1622 43.75C49.3042 44.582 47.7702 45.232 45.8462 45.206C42.0502 45.128 39.9702 41.826 39.9702 37.224ZM70.0692 37.146C70.2252 42.502 66.0132 45.18 61.3592 45.076C60.4492 45.05 59.7992 44.426 59.7472 43.282C59.7212 42.008 59.7212 33.012 59.4092 32.05C59.2532 31.426 58.8892 30.698 59.0452 30.178C59.1752 29.762 59.4872 29.58 60.1632 29.58C60.6572 29.632 61.1252 29.606 61.5932 29.632C66.1692 29.866 69.9652 32.31 70.0692 37.146ZM61.8012 43.204C63.5952 43.23 68.1452 42.138 67.9892 37.146C67.8852 33.688 65.2852 31.66 61.3592 31.478C61.6712 32.908 61.8272 41.774 61.8012 43.204ZM81.3774 43.204C83.0414 43.308 85.3294 43.1 87.9554 42.528C89.0214 42.294 89.4634 43.984 88.2154 44.374C86.5254 44.894 83.3014 45.284 80.9614 45.076C80.0254 44.972 79.3754 44.426 79.3234 43.282C79.2974 42.008 79.2974 33.012 78.9854 32.05C78.8294 31.426 78.4654 30.698 78.6214 30.178C78.7514 29.762 79.0634 29.58 79.7394 29.58C80.2074 29.606 80.6754 29.606 81.1694 29.606C82.3394 29.606 83.5874 29.502 84.8354 29.372C85.3554 29.32 85.8754 29.242 86.3694 29.216C87.2534 29.216 87.8254 29.554 87.8254 30.178C87.8514 30.776 87.4354 31.166 86.4994 31.166C83.8474 31.27 82.5474 31.348 80.9354 31.426C81.0654 32.024 81.1694 34.052 81.2474 36.262C82.3394 36.262 83.6914 36.21 84.8354 36.106C85.3554 36.054 85.8754 35.976 86.3694 35.95C87.2534 35.95 87.8254 36.288 87.8254 36.912C87.8514 37.51 87.4354 37.9 86.4994 37.9C84.1594 38.004 82.6774 38.056 81.2994 38.108C81.3514 40.422 81.3774 42.58 81.3774 43.204ZM99.9077 31.426L99.8297 36.132C100.948 36.132 102.378 36.106 103.574 35.976C104.094 35.924 104.614 35.846 105.108 35.82C105.992 35.82 106.564 36.158 106.564 36.782C106.59 37.38 106.174 37.77 105.238 37.77C102.768 37.874 101.26 37.926 99.8037 38.004L99.7257 42.424C99.6997 43.438 99.5177 45.154 98.5557 45.232C97.8797 45.284 97.6457 43.672 97.6457 42.97L97.7497 32.05C97.5677 31.426 97.2037 30.698 97.3597 30.178C97.4897 29.762 97.8017 29.58 98.4777 29.58C98.9457 29.606 99.4137 29.606 99.9077 29.606C101.078 29.606 102.326 29.502 103.574 29.372C104.094 29.32 104.614 29.242 105.108 29.216C105.992 29.216 106.564 29.554 106.564 30.178C106.59 30.776 106.174 31.166 105.238 31.166C102.586 31.27 101.52 31.348 99.9077 31.426ZM114.825 37.224C114.825 32.752 116.853 29.398 120.701 29.216C122.599 29.112 124.029 29.502 125.069 30.1C125.563 30.386 125.745 30.906 125.511 31.478C125.329 31.998 124.705 32.206 124.263 31.946C123.301 31.322 122.079 31.088 120.909 31.166C118.491 31.296 116.905 33.688 116.905 37.224C116.905 41.15 118.881 43.178 121.195 43.23C122.469 43.256 123.301 42.918 123.977 42.346V38.706C123.457 38.732 122.911 38.758 122.261 38.784C121.195 38.81 120.597 37.666 120.883 37.198C121.195 36.704 122.235 36.964 122.963 36.964C123.743 36.964 124.705 36.886 125.537 36.808C125.927 36.782 126.395 36.704 126.733 36.704C127.435 36.704 127.669 37.12 127.669 37.536C127.669 38.16 127.253 38.446 126.785 38.55C126.603 38.55 126.369 38.524 125.927 38.55V42.684C125.953 43.048 125.823 43.412 125.537 43.672C124.679 44.504 123.223 45.232 120.961 45.206C117.191 45.18 114.825 41.826 114.825 37.224ZM143.162 44.166C142.356 44.608 141.056 44.998 140.068 44.998C137.026 44.92 135.752 43.594 135.7 41.488C135.674 39.33 137.572 37.874 140.666 38.056C141.446 38.108 142.278 38.342 142.98 38.68V38.654C142.98 37.068 142.148 36.08 140.25 36.028C139.288 35.976 138.43 36.392 137.676 36.886C137.234 37.146 136.61 36.964 136.402 36.47C136.194 35.898 136.376 35.404 136.87 35.092C137.728 34.546 138.898 34.156 140.458 34.208C143.656 34.286 144.904 35.976 144.93 38.68L144.982 42.294C144.982 43.412 144.8 45.076 143.916 45.128C143.578 45.128 143.318 44.816 143.162 44.166ZM142.98 40.422C142.46 40.11 141.498 39.928 140.64 39.876C138.924 39.746 137.78 40.188 137.728 41.436C137.65 42.814 138.924 43.308 140.536 43.178C141.524 43.1 142.46 42.71 142.98 42.346V40.422ZM154.623 29.658C155.117 29.242 155.871 29.502 156.235 29.918C156.911 30.698 157.405 31.738 157.379 32.778L157.327 35.066C158.003 34.624 158.809 34.416 159.459 34.39C162.657 34.26 164.243 36.938 164.243 39.382C164.243 41.774 163.229 44.712 159.901 44.972C158.861 45.024 157.639 44.842 156.833 44.426C156.651 44.79 156.391 45.076 156.027 45.102C155.351 45.154 155.117 43.542 155.117 42.84L155.221 33.558C155.221 33.012 155.143 32.206 154.883 31.712C154.571 31.088 154.103 30.152 154.623 29.658ZM157.275 37.302L157.171 42.32V42.658C157.665 42.918 158.419 43.126 159.485 43.1C161.409 43.074 162.241 41.592 162.241 39.616C162.241 37.484 161.201 36.132 159.485 36.262C158.783 36.314 157.847 36.678 157.275 37.302ZM173.074 39.694C173.074 36.392 174.712 34.26 177.884 34.182C179.47 34.13 180.64 34.52 181.498 35.066C181.992 35.378 182.174 35.872 181.94 36.444C181.758 36.964 181.134 37.172 180.692 36.912C179.938 36.418 179.08 36.054 178.092 36.132C176.064 36.236 175.154 37.432 175.154 39.694C175.154 42.19 176.636 43.23 178.378 43.23C179.262 43.23 180.094 42.84 180.874 41.982C181.238 41.592 181.94 41.878 182.226 42.346C182.46 42.762 182.356 43.334 181.966 43.75C181.134 44.634 179.886 45.232 178.092 45.206C174.868 45.102 173.074 42.866 173.074 39.694ZM198.303 44.504C197.497 44.868 196.353 45.024 195.391 44.972C192.063 44.712 191.075 41.774 191.075 39.382C191.075 36.938 192.739 34.208 195.833 34.39C196.483 34.442 197.263 34.65 197.939 35.066V30.464C197.939 29.84 198.381 29.45 199.031 29.45C199.733 29.45 200.201 29.892 200.201 30.36L199.993 42.008C199.967 43.126 199.785 45.05 198.901 45.102C198.667 45.102 198.459 44.894 198.303 44.504ZM197.965 37.25C197.367 36.652 196.483 36.314 195.807 36.262C194.091 36.132 193.077 37.744 193.077 39.616C193.077 41.176 193.909 42.97 195.807 43.1C196.769 43.204 197.471 42.996 197.991 42.736C197.965 42.502 197.965 42.268 197.965 42.008V37.25ZM214.451 36.132C212.813 36.314 211.903 37.068 211.617 38.524C212.423 38.862 213.541 38.94 214.555 38.94C216.739 38.94 217.259 38.212 217.181 37.432C217.129 36.548 216.245 35.95 214.451 36.132ZM211.539 40.37C211.773 42.424 213.151 43.282 214.737 43.282C215.621 43.282 216.713 42.892 217.493 42.034C217.857 41.644 218.559 41.904 218.845 42.372C219.079 42.788 218.975 43.334 218.585 43.75C217.753 44.634 216.245 45.232 214.451 45.206C211.227 45.102 209.433 42.866 209.433 39.694C209.433 36.392 211.305 34.364 214.243 34.182C217.181 34 219.001 35.3 219.157 37.354C219.339 39.356 217.753 40.708 214.581 40.838C213.567 40.864 212.475 40.708 211.539 40.37ZM232.154 33.922L232.128 35.092C232.414 35.066 232.726 35.04 233.064 35.014C233.454 34.988 233.922 34.91 234.26 34.91C234.962 34.91 235.17 35.352 235.196 35.768C235.222 36.444 234.806 36.704 234.312 36.782C234.104 36.782 233.688 36.73 232.856 36.834C232.596 36.86 232.362 36.886 232.102 36.886L232.05 42.008C232.024 43.126 231.842 45.05 230.958 45.102C230.412 45.102 230.022 43.958 230.022 42.008L229.996 37.042C229.632 37.068 229.216 37.094 228.748 37.12C227.682 37.172 226.98 36.08 227.37 35.456C227.63 35.092 228.722 35.248 229.45 35.248H229.996V34.442C229.996 31.842 230.958 29.45 234.26 29.45C234.962 29.45 235.17 29.892 235.196 30.308C235.222 30.984 234.832 31.426 234.364 31.426C232.934 31.426 232.154 32.44 232.154 33.922ZM250.084 44.686C249.408 44.92 248.628 45.024 247.874 44.972C244.546 44.712 243.558 41.774 243.558 39.382C243.558 36.938 245.222 34.208 248.316 34.39C249.018 34.442 249.772 34.676 250.396 35.17C250.5 34.676 250.864 34.39 251.436 34.39C252.138 34.39 252.528 34.754 252.528 35.326L252.476 41.462C252.476 45.856 250.448 48.898 248.082 50.094C247.718 50.276 247.172 50.172 246.834 49.938C246.47 49.678 246.34 49.288 246.938 48.846C248.524 47.676 249.564 46.428 250.084 44.686ZM250.37 37.432C249.876 36.73 249.044 36.314 248.29 36.262C246.574 36.132 245.56 37.744 245.56 39.616C245.56 41.176 246.392 42.97 248.29 43.1C249.356 43.204 249.954 42.97 250.37 42.658C250.396 42.502 250.396 42.346 250.396 42.19L250.37 37.432Z" fill="black"/>
</svg>
