<svg width="316" height="51" viewBox="0 0 316 51" fill="none" xmlns="http://www.w3.org/2000/svg">
<path d="M71.058 0.267999H75.79V8.12H78.546V10.226H75.79V20.132H71.058V0.267999ZM53.69 2.374V0.527999H66.742C67.912 0.527999 68.562 1.178 68.562 2.348V19.95H63.57V2.374H53.69ZM101.833 0.267999H106.565V8.51H109.269V10.616H106.565V20.132H101.833V0.267999ZM85.8687 17.792V0.527999H90.8607V18.078H99.4927V19.924H88.0007C86.7787 19.924 85.8687 19.014 85.8687 17.792ZM116.383 0.527999H130.371V2.504H121.115V17.974H130.761V19.95H118.723C117.215 19.95 116.383 19.118 116.383 17.61V0.527999ZM132.451 20.132V0.267999H137.183V8.484H139.887V10.59H137.183V20.132H132.451ZM146.664 8.9H156.232V2.504H146.612V0.527999H160.964V10.798H151.396V17.922H161.926V19.95H149.004C147.496 19.95 146.664 19.04 146.664 17.532V8.9ZM163.382 20.132V0.267999H168.114V8.484H170.818V10.59H168.114V20.132H163.382ZM194.105 0.267999H198.837V8.614H201.541V10.72H198.837V20.132H194.105V0.267999ZM177.231 16.804V0.527999H191.687V19.924H180.351C178.323 19.924 177.231 18.832 177.231 16.804ZM181.963 16.908C181.963 17.584 182.327 17.948 183.003 17.948H186.955V2.504H181.963V16.908ZM224.827 0.267999H229.559V8.926H232.263V11.032H229.559V20.132H224.827V0.267999ZM208.005 16.674V0.527999H212.737V8.64H217.755V0.527999H222.487V19.924H211.125C209.097 19.924 208.005 18.832 208.005 16.674ZM212.737 16.83C212.737 17.506 213.101 17.87 213.777 17.87H217.755V10.876H212.737V16.83ZM255.342 0.267999H260.074V8.614H262.986V10.72H260.074V20.132H255.342V0.267999ZM237.48 19.924L240.808 2.53C241.068 1.178 242.03 0.527999 243.408 0.527999H253.496V19.924H248.764V2.504H246.19C245.722 2.504 245.384 2.738 245.306 3.18L242.186 19.924H237.48ZM19.5857 26.268V45.95H14.8536V38.774H6.94965L4.89565 45.95H0.189648L5.33765 28.27C5.72765 26.918 6.55965 26.268 7.93765 26.268H19.5857ZM7.62565 36.382H14.8536V28.244H10.5896C10.1216 28.244 9.83565 28.478 9.70565 28.92L7.62565 36.382ZM27.5354 28.01C27.5354 26.84 28.1854 26.19 29.3554 26.19H39.1574C41.3414 26.19 44.3314 26.554 44.3314 30.532V32.768C44.3314 34.276 43.3174 35.862 41.4454 36.122C43.9674 36.122 45.6834 37.838 45.6834 39.996V42.154C45.6834 44.338 44.3574 46.028 41.7834 46.028H27.5354V28.01ZM32.2674 44H38.6634C40.3534 44 41.2634 43.09 41.2634 41.4V40.49C41.2634 38.8 40.0414 37.578 38.3514 37.578H32.2674V44ZM32.2674 35.394H37.0514C38.7414 35.394 39.9634 34.172 39.9634 32.482V30.818C39.9634 29.128 39.0534 28.218 37.3634 28.218H32.2674V35.394ZM71.8781 40.854C71.8781 44.234 70.0581 46.054 66.6781 46.054H58.2021C54.8221 46.054 53.0021 44.234 53.0021 40.854V31.364C53.0021 27.984 54.8221 26.164 58.2021 26.164H66.5741C69.9541 26.164 71.7741 27.984 71.7741 31.364V32.456H66.9901V31.104C66.9901 29.414 65.7681 28.192 64.0781 28.192H60.7241C59.0341 28.192 57.8121 29.414 57.8121 31.104V41.114C57.8121 42.804 59.0341 44.026 60.7241 44.026H64.1821C65.8721 44.026 67.0941 42.804 67.0941 41.114V40.074H71.8781V40.854ZM79.2053 28.088C79.2053 26.918 79.8553 26.268 81.0253 26.268H92.6733C96.0533 26.268 97.8733 28.088 97.8733 31.468V40.75C97.8733 44.13 96.0533 45.95 92.6733 45.95H79.2053V28.088ZM83.9373 43.922H90.1773C91.8673 43.922 93.0893 42.7 93.0893 41.01V31.208C93.0893 29.518 91.8673 28.296 90.1773 28.296H83.9373V43.922ZM105.205 28.088C105.205 26.918 105.855 26.268 107.025 26.268H121.481V28.608H109.937V35.264H120.987V37.604H109.937V43.61H121.533V45.95H105.205V28.088ZM128.844 28.088C128.844 26.918 129.494 26.268 130.664 26.268H143.274V28.608H133.576V35.264H142.832V37.604H133.576V45.95H128.844V28.088ZM168.947 40.854C168.947 44.234 167.127 46.054 163.747 46.054H155.271C151.891 46.054 150.071 44.234 150.071 40.854V31.364C150.071 27.984 151.891 26.164 155.271 26.164H163.747C167.127 26.164 168.947 27.984 168.947 31.364V32.404H164.163V31.104C164.163 29.414 162.941 28.192 161.251 28.192H157.793C156.103 28.192 154.881 29.414 154.881 31.104V41.114C154.881 42.804 156.103 44.026 157.793 44.026H161.251C162.941 44.026 164.163 42.804 164.163 41.114V37.968H158.963V35.732H168.947V40.854ZM179.784 42.336C179.784 43.246 180.46 43.922 181.37 43.922H184.23C185.92 43.922 187.142 43.272 187.142 41.296V40.36H181.37C180.46 40.36 179.784 41.036 179.784 41.946V42.336ZM175.754 43.038V41.686C175.754 39.996 176.976 38.774 178.666 38.774H187.142V36.746C187.142 35.524 186.232 34.614 185.01 34.614H182.436C181.214 34.614 180.304 35.524 180.304 36.746V37.76H175.858V35.758C175.858 33.912 177.184 32.586 179.03 32.586H187.974C189.82 32.586 191.146 33.912 191.146 35.758V43.038C191.146 44.728 189.924 45.95 188.234 45.95H178.666C176.976 45.95 175.754 44.728 175.754 43.038ZM197.564 26.268H202.036V32.586H208.432C210.278 32.586 211.604 33.912 211.604 35.758V42.778C211.604 44.624 210.278 45.95 208.432 45.95H197.564V26.268ZM202.036 43.922H205.91C206.82 43.922 207.496 43.246 207.496 42.336V36.33C207.496 35.42 206.82 34.744 205.91 34.744H202.036V43.922ZM233.344 42.596C233.344 44.598 231.888 46.054 229.886 46.054H221.41C219.408 46.054 217.952 44.598 217.952 42.596V36.044C217.952 34.042 219.408 32.586 221.41 32.586H229.886C231.888 32.586 233.344 34.042 233.344 36.044V37.838H229.34V36.46C229.34 35.394 228.56 34.614 227.494 34.614H223.828C222.762 34.614 221.982 35.394 221.982 36.46V42.18C221.982 43.246 222.762 44.026 223.828 44.026H227.494C228.56 44.026 229.34 43.246 229.34 42.18V41.634H233.344V42.596ZM242.843 46.028C240.919 46.028 239.541 44.65 239.541 42.726V35.888C239.541 33.964 240.919 32.586 242.843 32.586H249.109V26.268H253.581V46.028H242.843ZM243.649 42.414C243.649 43.324 244.325 44 245.235 44H249.109V34.744H245.235C244.325 34.744 243.649 35.42 243.649 36.33V42.414ZM275.779 42.882C275.779 44.728 274.453 46.054 272.607 46.054H263.559C261.713 46.054 260.387 44.728 260.387 42.882V35.732C260.387 33.886 261.713 32.56 263.559 32.56H272.607C274.453 32.56 275.779 33.886 275.779 35.732V40.178H264.391V41.894C264.391 43.116 265.301 44.026 266.523 44.026H269.669C270.891 44.026 271.801 43.116 271.801 41.894V41.374H275.779V42.882ZM264.391 38.306H271.801V36.72C271.801 35.498 270.891 34.588 269.669 34.588H266.523C265.301 34.588 264.391 35.498 264.391 36.72V38.306ZM290.401 45.95H285.929V35.186H282.445V32.846H285.929V28.4C285.929 27.178 286.839 26.268 288.061 26.268H294.353V28.608H291.207C290.765 28.608 290.401 28.972 290.401 29.414V32.846H294.405V35.186H290.401V45.95ZM315.814 46.99C315.814 48.914 314.436 50.292 312.512 50.292H304.322C302.398 50.292 300.994 48.914 300.994 46.99V45.846H304.998V46.678C304.998 47.588 305.674 48.264 306.584 48.264H309.756C310.666 48.264 311.342 47.588 311.342 46.678V44.104H304.244C302.32 44.104 300.942 42.726 300.942 40.802V35.966C300.942 34.042 302.32 32.664 304.244 32.664H315.814V46.99ZM305.05 40.49C305.05 41.4 305.726 42.076 306.636 42.076H311.342V34.822H306.636C305.726 34.822 305.05 35.498 305.05 36.408V40.49Z" fill="black"/>
</svg>
