<svg width="390" height="56" viewBox="0 0 390 56" fill="none" xmlns="http://www.w3.org/2000/svg">
<path d="M83.9399 24.406V18.686C88.4639 18.27 92.5719 15.54 92.5719 11.068V5.894H84.1999V0.694H98.5519V11.068C98.5519 18.634 92.1039 23.626 83.9399 24.406ZM100.58 24.406V0.694H106.56V9.3H108.9V14.5H106.56V24.406H100.58ZM124.773 19.206H133.613V0.694H139.593V9.3H141.933V14.5H139.593V24.406H122.953C119.521 24.406 117.233 22.118 117.233 18.686V0.694H123.213V17.646C123.213 18.582 123.837 19.206 124.773 19.206ZM157.806 19.206H166.646V0.694H172.626V9.3H174.966V14.5H172.626V24.406H155.986C152.554 24.406 150.266 22.118 150.266 18.686V0.694H164.878V5.894H156.246V17.646C156.246 18.582 156.87 19.206 157.806 19.206ZM189.123 24.406C185.301 24.406 182.779 21.572 182.779 17.282C182.779 12.992 185.301 10.158 189.123 10.158H189.565C190.969 10.158 191.905 9.3 191.905 8C191.905 6.57 190.969 5.634 189.565 5.634H183.299V0.694H192.295C195.649 0.694 197.885 3.528 197.885 7.818C197.885 12.108 195.649 14.942 192.295 14.942H191.099C189.695 14.942 188.759 15.852 188.759 17.204C188.759 18.556 189.695 19.466 191.099 19.466H199.679V0.694H205.659V9.3H207.999V14.5H205.659V24.406H189.123ZM216.333 0.694H230.945V24.406H222.053C218.621 24.406 216.333 22.118 216.333 18.686V0.694ZM232.713 24.406V0.694H238.693V9.3H241.033V14.5H238.693V24.406H232.713ZM222.313 17.646C222.313 18.582 222.937 19.206 223.873 19.206H224.965V5.894H222.313V17.646ZM255.346 0.694V7.974H257.998V0.694H263.978V24.406H255.086C251.654 24.406 249.366 22.118 249.366 18.686V0.694H255.346ZM265.746 24.406V0.694H271.726V9.3H274.066V14.5H271.726V24.406H265.746ZM257.998 19.206V12.914H255.346V17.646C255.346 18.582 255.97 19.206 256.906 19.206H257.998ZM282.139 24.406V18.686C285.363 18.27 286.871 15.8 286.871 11.328V0.694H292.851V11.328C292.851 15.8 294.359 18.27 297.583 18.686V24.406C294.281 24.042 291.421 22.144 289.861 19.752C288.301 22.144 285.441 24.042 282.139 24.406ZM298.779 24.406V0.694H304.759V9.3H307.099V14.5H304.759V24.406H298.779ZM22.6311 36.782V50.406H16.2351V45.128H7.29107V50.406H0.89507V36.782C0.89507 30.516 5.28907 26.174 11.7631 26.174C18.2371 26.174 22.6311 30.516 22.6311 36.782ZM7.29107 36.262V39.772H16.2351V36.262C16.2351 33.792 14.6491 31.53 11.7631 31.53C8.87707 31.53 7.29107 33.792 7.29107 36.262ZM53.2302 33.688C53.2302 35.144 52.2682 37.094 50.8642 37.718C53.2042 38.758 54.2702 41.15 54.2702 43.412C54.2702 47.078 51.4882 50.406 46.1322 50.406H38.1502C34.7182 50.406 32.4302 48.118 32.4302 44.686V26.694H45.0922C50.4482 26.694 53.2302 30.022 53.2302 33.688ZM38.8262 40.682V44.478C38.8262 44.868 39.0862 45.128 39.4762 45.128H44.6242C46.5742 45.128 47.8742 44.53 47.8742 42.892C47.8742 41.254 46.5742 40.682 44.6242 40.682H38.8262ZM38.8262 36.418H43.5842C45.5342 36.418 46.8342 35.846 46.8342 34.208C46.8342 32.57 45.5342 31.972 43.5842 31.972H38.8262V36.418ZM80.4979 40.968H87.1279C86.3219 46.766 81.3819 50.952 74.8559 50.952C67.4719 50.952 62.3759 45.57 62.3759 38.55C62.3759 31.556 67.4719 26.174 74.8559 26.174C81.5119 26.174 86.5039 30.542 87.1799 36.496H80.5499C80.1079 33.558 78.0019 31.426 74.8559 31.426C71.0339 31.426 68.5119 34.572 68.5119 38.55C68.5119 42.554 71.0339 45.7 74.8559 45.7C77.8459 45.7 79.9519 43.75 80.4979 40.968ZM95.9322 26.694H105.474C113.43 26.694 117.512 31.426 117.512 38.55C117.512 45.674 113.43 50.406 105.474 50.406H101.652C98.2202 50.406 95.9322 48.118 95.9322 44.686V26.694ZM102.328 44.504C102.328 44.894 102.588 45.154 102.978 45.154H103.966C108.516 45.154 111.116 43.178 111.116 38.55C111.116 33.922 108.516 31.946 103.966 31.946H102.328V44.504ZM133.051 43.49C133.051 44.426 133.675 45.05 134.611 45.05H146.441V50.406H132.375C128.943 50.406 126.655 48.118 126.655 44.686V26.694H146.441V32.05H133.051V35.664H146.181V40.916H133.051V43.49ZM162.098 33.61V36.964H174.188V42.268H162.098V50.406H155.702V32.414C155.702 28.982 157.99 26.694 161.422 26.694H174.448V32.05H163.658C162.722 32.05 162.098 32.674 162.098 33.61ZM207.417 34.52H200.085C199.747 32.934 197.823 31.426 195.665 31.426C191.843 31.426 189.321 34.572 189.321 38.55C189.321 42.554 191.843 45.7 195.665 45.7C198.655 45.7 201.567 43.932 201.567 41.098H196.055V36.782H207.495V40.188C207.495 46.818 202.191 50.952 195.665 50.952C188.281 50.952 183.185 45.57 183.185 38.55C183.185 31.556 188.281 26.174 195.665 26.174C201.853 26.174 206.585 29.632 207.417 34.52ZM223.737 32.986C226.077 32.986 227.845 33.818 229.067 35.17V33.506H234.787V50.406H229.067V48.742C227.845 50.094 226.077 50.926 223.737 50.926C219.083 50.926 215.729 46.896 215.729 41.956C215.729 36.99 219.083 32.986 223.737 32.986ZM225.271 46.168C227.793 46.168 228.807 44.114 228.807 41.982V41.826C228.755 39.746 227.715 37.796 225.271 37.796C222.801 37.796 221.709 39.85 221.709 41.982C221.709 44.114 222.801 46.168 225.271 46.168ZM255.105 32.986C259.759 32.986 263.113 36.99 263.113 41.956C263.113 46.896 259.759 50.926 255.105 50.926C252.739 50.926 250.997 50.094 249.775 48.742V50.406H244.055V26.694H250.035V34.91C251.231 33.714 252.895 32.986 255.105 32.986ZM253.571 46.168C256.041 46.168 257.133 44.114 257.133 41.982C257.133 39.85 256.041 37.796 253.571 37.796C251.101 37.796 250.087 39.746 250.035 41.826V41.982C250.035 44.114 251.049 46.168 253.571 46.168ZM289.385 40.474H283.119C283.041 38.758 282.079 37.51 280.285 37.51C278.023 37.51 277.061 39.512 277.061 41.982C277.061 44.452 278.023 46.454 280.285 46.454C282.079 46.454 283.041 45.206 283.119 43.49H289.385C289.073 47.754 285.771 50.978 280.285 50.978C274.175 50.978 271.081 46.974 271.081 41.982C271.081 36.99 274.175 32.986 280.285 32.986C285.771 32.986 289.073 36.21 289.385 40.474ZM305.368 32.986C307.552 32.986 309.216 33.714 310.438 34.91V26.694H316.418V50.406H310.698V48.742C309.476 50.094 307.708 50.926 305.368 50.926C300.714 50.926 297.36 46.896 297.36 41.956C297.36 36.99 300.714 32.986 305.368 32.986ZM306.902 46.168C309.346 46.168 310.386 44.218 310.438 42.138V41.826C310.386 39.746 309.346 37.796 306.902 37.796C304.432 37.796 303.34 39.85 303.34 41.982C303.34 44.114 304.432 46.168 306.902 46.168ZM343.314 43.542H331.198C331.614 45.232 332.758 46.272 334.37 46.272C335.748 46.272 336.788 45.674 337.1 44.634H343.366C342.378 48.248 339.44 50.952 334.396 50.952C328.286 50.952 325.036 46.948 325.036 41.982C325.036 36.99 328.13 32.986 334.24 32.986C340.35 32.986 343.444 36.99 343.444 41.982C343.444 42.528 343.392 43.022 343.314 43.542ZM334.24 37.51C332.706 37.51 331.744 38.446 331.302 39.798H337.152C336.71 38.446 335.774 37.51 334.24 37.51ZM360.257 31.478C359.633 31.478 359.217 31.894 359.217 32.518V33.402H362.987V38.186H359.217V50.406H353.237V38.186H350.767V33.402H353.237V31.894C353.237 28.774 355.317 26.694 358.437 26.694H362.987V31.478H360.257ZM383.645 33.506H389.365V48.95C389.365 53.5 385.075 55.892 380.057 55.892C374.675 55.892 370.749 53.37 370.749 49.99H376.729C376.729 50.9 378.159 51.368 380.057 51.368C381.851 51.368 383.385 50.458 383.385 48.95V47.156C382.163 48.222 380.499 48.846 378.315 48.846C373.661 48.846 370.307 45.284 370.307 40.916C370.307 36.522 373.661 32.986 378.315 32.986C380.655 32.986 382.423 33.714 383.645 34.91V33.506ZM379.849 44.062C382.293 44.062 383.333 42.606 383.385 41.046V40.812C383.333 39.226 382.293 37.77 379.849 37.77C377.379 37.77 376.287 39.304 376.287 40.916C376.287 42.528 377.379 44.062 379.849 44.062Z" fill="black"/>
</svg>
