<svg width="410" height="410" viewBox="0 0 410 410" fill="none" xmlns="http://www.w3.org/2000/svg">
<ellipse cx="89.1354" cy="92.0841" rx="89.1354" ry="92.0841" transform="matrix(0.921797 0.387672 -0.36134 0.932434 155.568 3.64209)" fill="#DB9899"/>
<ellipse cx="89.1354" cy="92.0841" rx="89.1354" ry="92.0841" transform="matrix(0.921797 0.387672 -0.36134 0.932434 209.161 166.719)" fill="#DB9899"/>
<ellipse cx="89.1354" cy="92.0841" rx="89.1354" ry="92.0841" transform="matrix(0.921797 0.387672 -0.36134 0.932434 104.311 163.306)" fill="#DB9899"/>
<ellipse cx="89.1354" cy="92.0841" rx="89.1354" ry="92.0841" transform="matrix(0.921797 0.387672 -0.36134 0.932434 242.51 62.3971)" fill="#DB9899"/>
<ellipse cx="89.1354" cy="92.0841" rx="89.1354" ry="92.0841" transform="matrix(0.921797 0.387672 -0.36134 0.932434 70.5607 67.7476)" fill="#DB9899"/>
<path d="M167 267.28C198.482 235.639 230.889 254.108 243.157 267.298" stroke="#54433A" stroke-width="10" stroke-linecap="round"/>
<path d="M123 168.819C164.985 158.946 181.981 178.234 185.231 189.113" stroke="#54433A" stroke-width="10" stroke-linecap="round"/>
<circle cx="164.894" cy="204.054" r="18" fill="#54433A"/>
<path d="M287.462 168.819C245.477 158.946 228.481 178.234 225.231 189.113" stroke="#54433A" stroke-width="10" stroke-linecap="round"/>
<circle cx="18" cy="18" r="18" transform="matrix(-1 0 0 1 263.568 186.054)" fill="#54433A"/>
</svg>
