<svg width="400" height="400" viewBox="0 0 400 400" fill="none" xmlns="http://www.w3.org/2000/svg">
<ellipse cx="89.1354" cy="92.0841" rx="89.1354" ry="92.0841" transform="matrix(0.931206 0.364494 -0.337904 0.94118 145.608 0)" fill="#FFCFA7"/>
<ellipse cx="89.1354" cy="92.0841" rx="89.1354" ry="92.0841" transform="matrix(0.931206 0.364494 -0.337904 0.94118 203.264 161.686)" fill="#FFCFA7"/>
<ellipse cx="89.1354" cy="92.0841" rx="89.1354" ry="92.0841" transform="matrix(0.931206 0.364494 -0.337904 0.94118 98.3614 160.896)" fill="#FFCFA7"/>
<ellipse cx="89.1354" cy="92.0841" rx="89.1354" ry="92.0841" transform="matrix(0.931206 0.364494 -0.337904 0.94118 233.993 56.562)" fill="#FFCFA7"/>
<ellipse cx="89.1354" cy="92.0841" rx="89.1354" ry="92.0841" transform="matrix(0.931206 0.364494 -0.337904 0.94118 62.2311 66.2117)" fill="#FFCFA7"/>
<path fill-rule="evenodd" clip-rule="evenodd" d="M135.214 218.965C135.214 218.965 135.214 218.965 135.214 218.966C135.936 254.93 165.178 283.457 200.528 282.683C235.878 281.909 263.95 252.128 263.227 216.164C263.227 216.142 263.227 216.121 263.226 216.099L263.227 216.163L135.214 218.965Z" fill="#54433A"/>
<path d="M134.51 160.211C132.036 158.915 131.098 155.828 132.432 153.373C133.745 150.958 136.76 150.079 139.165 151.411L176.995 172.356C180.041 174.042 180.112 178.418 177.124 180.179C175.8 180.959 174.168 180.998 172.803 180.283L134.51 160.211Z" fill="#54433A"/>
<path d="M139.971 202.319C137.591 203.729 134.534 202.937 133.137 200.55C131.729 198.142 132.545 195.033 134.953 193.627L171.641 172.211C173.105 171.357 174.901 171.326 176.387 172.129C179.726 173.936 179.804 178.732 176.526 180.673L139.971 202.319Z" fill="#54433A"/>
<path d="M265.49 160.211C267.964 158.915 268.902 155.828 267.568 153.373C266.255 150.958 263.24 150.079 260.835 151.411L223.005 172.356C219.959 174.042 219.888 178.418 222.876 180.179C224.2 180.959 225.832 180.998 227.197 180.283L265.49 160.211Z" fill="#54433A"/>
<path d="M260.029 202.319C262.409 203.729 265.466 202.937 266.863 200.55C268.271 198.142 267.455 195.033 265.047 193.627L228.359 172.211C226.895 171.357 225.099 171.326 223.613 172.129C220.274 173.936 220.196 178.732 223.474 180.673L260.029 202.319Z" fill="#54433A"/>
</svg>
