<svg width="410" height="410" viewBox="0 0 410 410" fill="none" xmlns="http://www.w3.org/2000/svg">
<ellipse cx="89.1354" cy="92.0841" rx="89.1354" ry="92.0841" transform="matrix(0.921797 0.387672 -0.36134 0.932434 155.628 3.70203)" fill="#B0BACF"/>
<ellipse cx="89.1354" cy="92.0841" rx="89.1354" ry="92.0841" transform="matrix(0.921797 0.387672 -0.36134 0.932434 209.221 166.779)" fill="#B0BACF"/>
<ellipse cx="89.1354" cy="92.0841" rx="89.1354" ry="92.0841" transform="matrix(0.921797 0.387672 -0.36134 0.932434 104.371 163.365)" fill="#B0BACF"/>
<ellipse cx="89.1354" cy="92.0841" rx="89.1354" ry="92.0841" transform="matrix(0.921797 0.387672 -0.36134 0.932434 242.57 62.457)" fill="#B0BACF"/>
<ellipse cx="89.1354" cy="92.0841" rx="89.1354" ry="92.0841" transform="matrix(0.921797 0.387672 -0.36134 0.932434 70.6207 67.8075)" fill="#B0BACF"/>
<path d="M129 179.172C161.019 179.172 170.548 161.831 175 145" stroke="#54433A" stroke-width="10" stroke-linecap="round"/>
<path d="M283 179.172C250.981 179.172 241.452 161.831 237 145" stroke="#54433A" stroke-width="10" stroke-linecap="round"/>
<circle cx="173" cy="202.197" r="18" fill="#54433A"/>
<circle cx="18" cy="18" r="18" transform="matrix(-1 0 0 1 257 184.197)" fill="#54433A"/>
<path d="M168 265.202C200.731 232.306 234.423 251.508 247.177 265.221" stroke="#54433A" stroke-width="10" stroke-linecap="round"/>
<path d="M172.895 244.984C173.067 257.75 167.699 267.792 158.903 267.173C150.106 266.555 145.296 255.798 147.235 243.181C148.86 232.6 160.342 220.929 162.112 221.054C163.881 221.178 172.751 234.279 172.895 244.984Z" fill="#DBF4F8"/>
</svg>
