<svg width="410" height="410" viewBox="0 0 410 410" fill="none" xmlns="http://www.w3.org/2000/svg">
<ellipse cx="89.1354" cy="92.0841" rx="89.1354" ry="92.0841" transform="matrix(0.921797 0.387672 -0.36134 0.932434 155.568 3.64209)" fill="#BDD7D2"/>
<ellipse cx="89.1354" cy="92.0841" rx="89.1354" ry="92.0841" transform="matrix(0.921797 0.387672 -0.36134 0.932434 209.161 166.719)" fill="#BDD7D2"/>
<ellipse cx="89.1354" cy="92.0841" rx="89.1354" ry="92.0841" transform="matrix(0.921797 0.387672 -0.36134 0.932434 104.311 163.306)" fill="#BDD7D2"/>
<ellipse cx="89.1354" cy="92.0841" rx="89.1354" ry="92.0841" transform="matrix(0.921797 0.387672 -0.36134 0.932434 242.51 62.3971)" fill="#BDD7D2"/>
<ellipse cx="89.1354" cy="92.0841" rx="89.1354" ry="92.0841" transform="matrix(0.921797 0.387672 -0.36134 0.932434 70.5605 67.7476)" fill="#BDD7D2"/>
<path d="M184.999 180C170.001 202.222 133.501 200.705 119 180.274" stroke="#54433A" stroke-width="10" stroke-linecap="round"/>
<path d="M301.067 182C286.069 204.222 249.569 202.705 235.068 182.274" stroke="#54433A" stroke-width="10" stroke-linecap="round"/>
<ellipse cx="210" cy="241" rx="23" ry="30" fill="#54433A"/>
<line x1="281" y1="107" x2="317" y2="107" stroke="#2153C9" stroke-width="10" stroke-linecap="round"/>
<line x1="283" y1="139" x2="319" y2="139" stroke="#2153C9" stroke-width="10" stroke-linecap="round"/>
<line x1="282.427" y1="138.328" x2="317.14" y2="107.573" stroke="#2153C9" stroke-width="10" stroke-linecap="round"/>
<line x1="329" y1="78" x2="371.267" y2="78" stroke="#2153C9" stroke-width="10" stroke-linecap="round"/>
<line x1="332.733" y1="116" x2="375" y2="116" stroke="#2153C9" stroke-width="10" stroke-linecap="round"/>
<line x1="5" y1="-5" x2="58.5725" y2="-5" transform="matrix(0.725269 -0.688466 0.637257 0.770651 332.4 122.767)" stroke="#2153C9" stroke-width="10" stroke-linecap="round"/>
</svg>
