<svg width="281" height="54" viewBox="0 0 281 54" fill="none" xmlns="http://www.w3.org/2000/svg">
<path d="M57.4945 0.211998H60.9785V24.288H57.4945V0.211998ZM60.0685 9.416H64.3065V12.25H60.0685V9.416ZM51.1765 2.708H54.5565C54.5565 9.936 51.8005 16.124 43.7925 20.154L41.8685 17.528C48.1865 14.252 51.1765 9.832 51.1765 3.306V2.708ZM43.1945 2.708H52.9445V5.49H43.1945V2.708ZM89.3947 9.338H93.6327V12.172H89.3947V9.338ZM86.8207 0.211998H90.3047V24.288H86.8207V0.211998ZM72.1567 2.526H75.6147V17.476H72.1567V2.526ZM72.1567 15.552H74.2367C77.6687 15.552 81.3867 15.318 85.2607 14.538L85.6247 17.372C81.6467 18.204 77.7727 18.412 74.2367 18.412H72.1567V15.552ZM116.147 0.211998H119.631V24.366H116.147V0.211998ZM118.851 9.13H123.115V11.964H118.851V9.13ZM101.691 15.708H103.719C107.775 15.708 110.973 15.578 114.509 14.954L114.847 17.814C111.207 18.464 107.905 18.568 103.719 18.568H101.691V15.708ZM101.691 2.448H112.923V5.23H105.123V17.086H101.691V2.448ZM145.525 0.211998H148.957V24.366H145.525V0.211998ZM148.177 9.312H152.441V12.172H148.177V9.312ZM131.069 15.942H133.097C137.179 15.942 140.351 15.812 143.887 15.188L144.225 17.97C140.585 18.62 137.283 18.776 133.097 18.776H131.069V15.942ZM131.043 2.266H142.119V11.6H134.501V17.008H131.069V8.844H138.687V5.022H131.043V2.266ZM160.135 2.5H171.653V18.464H160.135V2.5ZM168.247 5.204H163.541V15.734H168.247V5.204ZM174.799 0.238H178.283V24.314H174.799V0.238ZM177.503 9.312H181.767V12.172H177.503V9.312ZM204.125 0.238H207.609V24.314H204.125V0.238ZM206.829 9.208H211.093V12.068H206.829V9.208ZM189.461 2.136H192.893V7.986H197.729V2.136H201.161V18.75H189.461V2.136ZM192.893 10.664V15.968H197.729V10.664H192.893ZM223.468 2.084H226.276V5.594C226.276 11.548 224.196 17.138 219.646 19.374L217.566 16.592C221.622 14.694 223.468 10.066 223.468 5.594V2.084ZM224.17 2.084H226.926V5.594C226.926 9.91 228.642 14.304 232.49 16.176L230.41 18.932C226.068 16.722 224.17 11.366 224.17 5.594V2.084ZM233.452 0.238H236.936V24.314H233.452V0.238ZM236.156 9.494H240.42V12.38H236.156V9.494ZM3.90271 48H0.808711L7.62071 30.58H11.0007L17.8127 48H14.5887L12.9247 43.606H5.56671L3.90271 48ZM8.32271 36.352L6.52871 41.058H11.9627L10.1947 36.352L9.25871 33.206L8.32271 36.352ZM32.8425 48H25.0685V30.58H32.9725C36.5085 30.58 38.1725 32.452 38.1725 35.026C38.1725 37.34 36.3525 38.718 33.5445 38.952C37.4965 39.264 38.9005 41.032 38.9005 43.372C38.9005 46.466 36.5865 48 32.8425 48ZM32.0885 33.18H28.0065V37.834H32.1925C33.9345 37.834 35.1305 37.288 35.1305 35.52C35.1305 33.752 33.9085 33.18 32.0885 33.18ZM32.4785 40.304H28.0065V45.4H32.4005C34.7925 45.4 35.8845 44.62 35.8845 42.852C35.8845 41.084 34.5065 40.304 32.4785 40.304ZM54.9076 48.208C49.5516 48.208 46.5356 44.282 46.5356 39.264C46.5356 34.246 49.5516 30.32 54.9076 30.32C58.7556 30.32 61.4076 32.296 62.6296 35.702L60.0816 37.574C59.5356 34.948 57.9236 33.102 54.9336 33.102C51.3456 33.102 49.6556 35.65 49.6556 39.264C49.6556 42.852 51.3456 45.426 54.9336 45.426C57.9236 45.426 59.5356 43.554 60.0816 40.954L62.6296 42.826C61.4076 46.206 58.7556 48.208 54.9076 48.208ZM77.2989 48H70.7209V30.58H77.2989C82.6809 30.58 85.5929 33.908 85.5929 39.29C85.5929 44.672 82.7069 48 77.2989 48ZM76.9349 33.18H73.6589V45.4H76.9609C80.5489 45.4 82.5249 43.658 82.5249 39.29C82.5249 34.922 80.5489 33.18 76.9349 33.18ZM106.176 48H93.8517V30.58H106.176V33.18H96.7897V37.808H104.564V40.408H96.7897V45.4H106.176V48ZM117.204 48H114.266V30.58H126.356V33.18H117.204V38.536H124.77V41.136H117.204V48ZM140.725 48.208C136.253 48.208 133.575 44.802 133.575 39.264C133.575 34.142 136.565 30.32 141.973 30.32C145.639 30.32 148.343 32.088 149.539 35.234L146.991 37.054C146.471 34.818 144.807 33.102 141.999 33.102C138.359 33.102 136.695 35.65 136.695 39.264C136.695 42.956 138.385 45.452 141.817 45.452C144.755 45.452 146.055 43.866 146.679 41.448H141.661V38.978H149.617V48H147.745L146.939 41.448C146.809 45.374 144.599 48.208 140.725 48.208ZM160.611 48.26C158.531 48.26 157.283 47.09 157.283 45.27C157.283 43.476 158.531 42.384 160.585 41.578L164.823 39.784C164.719 38.51 164.147 37.652 162.405 37.652C160.715 37.652 159.389 38.64 158.661 39.966L156.919 37.886C157.907 36.534 159.883 35.078 162.691 35.078C165.837 35.078 167.605 36.872 167.605 39.992V44.75C167.605 45.322 167.813 45.504 168.281 45.504H169.087V48H167.293C165.941 48 164.875 47.376 164.875 45.556V44.62C164.485 46.284 163.263 48.26 160.611 48.26ZM160.091 44.828C160.091 45.556 160.585 45.998 161.651 45.998C163.575 45.998 164.875 44.854 164.875 43.138V41.786L161.625 43.242C160.533 43.736 160.091 44.178 160.091 44.828ZM179.634 48H176.722V30.58H179.634V38.744C180.05 36.768 181.168 35.078 183.69 35.078C186.784 35.078 188.76 37.6 188.76 41.682C188.76 45.764 186.784 48.286 183.638 48.286C181.116 48.286 180.05 46.596 179.634 44.646V48ZM179.634 42.488C179.634 44.568 180.492 45.92 182.546 45.92C184.392 45.92 185.77 44.542 185.77 41.682C185.77 38.848 184.392 37.444 182.546 37.444C180.492 37.444 179.634 38.822 179.634 40.902V42.488ZM202.039 48.26C198.269 48.26 195.903 45.608 195.903 41.682C195.903 37.73 198.269 35.078 202.039 35.078C205.211 35.078 207.213 36.872 207.889 39.264L205.263 40.564C204.977 38.744 204.041 37.522 202.091 37.522C200.089 37.522 198.867 39.004 198.867 41.682C198.867 44.334 200.089 45.816 202.091 45.816C204.067 45.816 204.977 44.594 205.263 42.774L207.889 44.074C207.213 46.466 205.211 48.26 202.039 48.26ZM219.939 48.286C216.819 48.286 214.843 45.764 214.843 41.682C214.843 37.6 216.819 35.078 219.887 35.078C222.409 35.078 223.527 36.768 223.943 38.744V30.58H226.855V48H223.943V44.646C223.527 46.596 222.461 48.286 219.939 48.286ZM217.833 41.682C217.833 44.542 219.211 45.92 221.057 45.92C223.085 45.92 223.943 44.568 223.943 42.488V40.902C223.943 38.822 223.085 37.444 221.031 37.444C219.211 37.444 217.833 38.848 217.833 41.682ZM240.94 48.26C237.17 48.26 234.7 45.634 234.7 41.682C234.7 37.704 237.17 35.078 240.732 35.078C244.528 35.078 246.634 37.6 246.634 41.11C246.634 41.578 246.582 42.124 246.53 42.384H237.482C237.638 44.646 238.964 45.868 240.966 45.868C243.176 45.868 244.164 44.724 244.632 43.658L246.426 45.53C245.464 46.986 243.748 48.26 240.94 48.26ZM240.732 37.418C238.938 37.418 237.742 38.458 237.508 40.512H244.008C243.8 38.51 242.656 37.418 240.732 37.418ZM258.52 48H255.608V37.6H253.658V35.338H255.608V34.558C255.608 31.932 257.22 30.32 259.898 30.32C261.744 30.32 262.966 31.23 263.486 31.906L262.212 33.986C261.744 33.232 260.99 32.66 260.028 32.66C258.962 32.66 258.52 33.232 258.52 34.272V35.338H262.212V37.6H258.52V48ZM274.675 44.204C273.687 44.204 272.777 44.022 272.023 43.658C271.789 44.048 271.503 44.542 271.503 44.984C271.503 45.634 271.841 45.972 273.011 45.972H277.093C279.615 45.972 280.993 46.986 280.993 48.884C280.993 51.276 278.653 53.096 274.051 53.096C270.515 53.096 268.461 51.978 268.461 50.392C268.461 49.196 269.605 48.546 270.827 48.26C269.917 48 269.319 47.402 269.319 46.44C269.319 45.296 270.307 44.178 271.477 43.372C270.203 42.592 269.423 41.266 269.423 39.654C269.423 36.976 271.555 35.078 274.675 35.078C275.481 35.078 276.209 35.208 276.859 35.442L277.483 32.4L280.291 33.362L277.925 35.962C279.173 36.768 279.901 38.068 279.901 39.654C279.901 42.332 277.795 44.204 274.675 44.204ZM274.675 42.124C276.053 42.124 277.145 41.24 277.145 39.654C277.145 38.068 276.053 37.184 274.675 37.184C273.297 37.184 272.205 38.068 272.205 39.654C272.205 41.24 273.297 42.124 274.675 42.124ZM274.181 50.912C276.911 50.912 278.367 50.314 278.367 49.248C278.367 48.572 277.821 48.286 276.703 48.286H271.425C271.139 48.572 270.827 48.988 270.827 49.43C270.827 50.366 271.867 50.912 274.181 50.912Z" fill="black"/>
</svg>
