<svg width="410" height="410" viewBox="0 0 410 410" fill="none" xmlns="http://www.w3.org/2000/svg">
<ellipse cx="89.1354" cy="92.0841" rx="89.1354" ry="92.0841" transform="matrix(0.921797 0.387672 -0.36134 0.932434 155.568 3.64209)" fill="#DFD2EA"/>
<ellipse cx="89.1354" cy="92.0841" rx="89.1354" ry="92.0841" transform="matrix(0.921797 0.387672 -0.36134 0.932434 209.161 166.719)" fill="#DFD2EA"/>
<ellipse cx="89.1354" cy="92.0841" rx="89.1354" ry="92.0841" transform="matrix(0.921797 0.387672 -0.36134 0.932434 104.311 163.306)" fill="#DFD2EA"/>
<ellipse cx="89.1354" cy="92.0841" rx="89.1354" ry="92.0841" transform="matrix(0.921797 0.387672 -0.36134 0.932434 242.51 62.3971)" fill="#DFD2EA"/>
<ellipse cx="89.1354" cy="92.0841" rx="89.1354" ry="92.0841" transform="matrix(0.921797 0.387672 -0.36134 0.932434 70.5605 67.7476)" fill="#DFD2EA"/>
<circle cx="161" cy="187" r="18" fill="#54433A"/>
<circle cx="247" cy="187" r="18" fill="#54433A"/>
<path d="M162 235.426C194.5 272.5 234.241 251.099 246.561 235.135" stroke="#54433A" stroke-width="10" stroke-linecap="round"/>
</svg>
